<svg width="14" height="14" viewBox="0 0 14 14" fill="none" xmlns="http://www.w3.org/2000/svg">
<path fill-rule="evenodd" clip-rule="evenodd" d="M0.292924 0.292893C0.683448 -0.0976311 1.31661 -0.0976311 1.70714 0.292893L13.7071 12.2929C14.0977 12.6834 14.0977 13.3166 13.7071 13.7071C13.3166 14.0976 12.6835 14.0976 12.2929 13.7071L0.292924 1.70711C-0.0976006 1.31658 -0.0976006 0.683417 0.292924 0.292893Z" fill="#102E39"/>
<path fill-rule="evenodd" clip-rule="evenodd" d="M13.7072 0.292893C13.3166 -0.0976311 12.6835 -0.0976311 12.293 0.292893L0.292953 12.2929C-0.0975704 12.6834 -0.0975704 13.3166 0.292953 13.7071C0.683478 14.0976 1.31664 14.0976 1.70717 13.7071L13.7072 1.70711C14.0977 1.31658 14.0977 0.683417 13.7072 0.292893Z" fill="#102E39"/>
</svg>
