<svg width="24" height="24" viewBox="0 0 24 24" fill="none" xmlns="http://www.w3.org/2000/svg">
<path fill-rule="evenodd" clip-rule="evenodd" d="M0.821163 0.821487C1.47204 0.170614 2.52731 0.170614 3.17819 0.821487L23.1782 20.8215C23.8291 21.4724 23.8291 22.5276 23.1782 23.1785C22.5273 23.8294 21.472 23.8294 20.8212 23.1785L0.821163 3.17851C0.170289 2.52764 0.170289 1.47236 0.821163 0.821487Z" fill="white"/>
<path fill-rule="evenodd" clip-rule="evenodd" d="M23.1779 0.821487C22.527 0.170614 21.4717 0.170614 20.8208 0.821487L0.820835 20.8215C0.169962 21.4724 0.169962 22.5276 0.820835 23.1785C1.47171 23.8294 2.52698 23.8294 3.17786 23.1785L23.1779 3.17851C23.8287 2.52764 23.8287 1.47236 23.1779 0.821487Z" fill="white"/>
</svg>
