<svg width="24" height="24" viewBox="0 0 24 24" fill="none" xmlns="http://www.w3.org/2000/svg">
<path fill-rule="evenodd" clip-rule="evenodd" d="M3 16L8.96685 16C9.51914 16 9.96685 16.4477 9.96685 17C9.96685 17.5523 9.51914 18 8.96685 18L3 18C2.44772 18 2 17.5523 2 17C2 16.4477 2.44772 16 3 16Z" fill="#102E39"/>
<path fill-rule="evenodd" clip-rule="evenodd" d="M14 7C14 6.44772 14.4477 6 15 6H21C21.5523 6 22 6.44772 22 7C22 7.55228 21.5523 8 21 8H15C14.4477 8 14 7.55228 14 7Z" fill="#102E39"/>
<path fill-rule="evenodd" clip-rule="evenodd" d="M2 7C2 6.44772 2.44772 6 3 6H3.01C3.56228 6 4.01 6.44772 4.01 7C4.01 7.55228 3.56228 8 3.01 8H3C2.44772 8 2 7.55228 2 7Z" fill="#102E39"/>
<path fill-rule="evenodd" clip-rule="evenodd" d="M20 17C20 16.4477 20.4477 16 21 16H21.01C21.5623 16 22.01 16.4477 22.01 17C22.01 17.5523 21.5623 18 21.01 18H21C20.4477 18 20 17.5523 20 17Z" fill="#102E39"/>
<path fill-rule="evenodd" clip-rule="evenodd" d="M14.9336 15C13.8434 15 12.9502 15.8902 12.9502 17C12.9502 18.1098 13.8434 19 14.9336 19C16.0238 19 16.917 18.1098 16.917 17C16.917 15.8902 16.0238 15 14.9336 15ZM10.9502 17C10.9502 14.7961 12.7284 13 14.9336 13C17.1388 13 18.917 14.7961 18.917 17C18.917 19.2039 17.1388 21 14.9336 21C12.7284 21 10.9502 19.2039 10.9502 17Z" fill="#102E39"/>
<path fill-rule="evenodd" clip-rule="evenodd" d="M8.96682 5C7.87662 5 6.9834 5.8902 6.9834 7C6.9834 8.1098 7.87662 9 8.96682 9C10.057 9 10.9502 8.1098 10.9502 7C10.9502 5.8902 10.057 5 8.96682 5ZM4.9834 7C4.9834 4.79609 6.76162 3 8.96682 3C11.172 3 12.9502 4.79609 12.9502 7C12.9502 9.20391 11.172 11 8.96682 11C6.76162 11 4.9834 9.20391 4.9834 7Z" fill="#102E39"/>
</svg>
