<svg width="81" height="80" viewBox="0 0 81 80" fill="none" xmlns="http://www.w3.org/2000/svg">
<circle cx="40.5" cy="40" r="40" fill="#3C8DE8"/>
<path fill-rule="evenodd" clip-rule="evenodd" d="M24 28.1753C24 23.6602 27.6937 20 32.25 20H48.75C53.3063 20 57 23.6602 57 28.1753V56.9051C57 60.2299 53.2076 62.1639 50.4774 60.2314L40.5 53.1692L30.5226 60.2314C27.7924 62.1639 24 60.2299 24 56.9051V28.1753ZM32.25 24.0877C29.9718 24.0877 28.125 25.9178 28.125 28.1753V56.9051L38.1024 49.8429C39.5366 48.8277 41.4634 48.8277 42.8976 49.8429L52.875 56.9051V28.1753C52.875 25.9178 51.0282 24.0877 48.75 24.0877H32.25Z" fill="white"/>
</svg>
