<svg width="21" height="21" viewBox="0 0 21 21" fill="none" xmlns="http://www.w3.org/2000/svg">
<path fill-rule="evenodd" clip-rule="evenodd" d="M10.5 3.5C6.63401 3.5 3.5 6.63401 3.5 10.5C3.5 14.366 6.63401 17.5 10.5 17.5C14.366 17.5 17.5 14.366 17.5 10.5C17.5 6.63401 14.366 3.5 10.5 3.5ZM1.75 10.5C1.75 5.66751 5.66751 1.75 10.5 1.75C15.3325 1.75 19.25 5.66751 19.25 10.5C19.25 15.3325 15.3325 19.25 10.5 19.25C5.66751 19.25 1.75 15.3325 1.75 10.5Z" fill="#102E39"/>
<path fill-rule="evenodd" clip-rule="evenodd" d="M8.82471 5.28691C8.25172 6.57613 7.875 8.4185 7.875 10.5C7.875 12.5815 8.25172 14.4239 8.82471 15.7131C9.1117 16.3588 9.43076 16.8272 9.74085 17.1223C10.0464 17.4131 10.3015 17.5 10.5 17.5C10.6985 17.5 10.9536 17.4131 11.2591 17.1223C11.5692 16.8272 11.8883 16.3588 12.1753 15.7131C12.7483 14.4239 13.125 12.5815 13.125 10.5C13.125 8.4185 12.7483 6.57613 12.1753 5.28691C11.8883 4.64119 11.5692 4.17281 11.2591 3.8777C10.9536 3.58689 10.6985 3.5 10.5 3.5C10.3015 3.5 10.0464 3.58689 9.74085 3.8777C9.43076 4.17281 9.1117 4.64119 8.82471 5.28691ZM8.53443 2.61001C9.06631 2.10383 9.73204 1.75 10.5 1.75C11.268 1.75 11.9337 2.10383 12.4656 2.61001C12.9929 3.1119 13.4281 3.79678 13.7745 4.57616C14.4682 6.13713 14.875 8.23226 14.875 10.5C14.875 12.7677 14.4682 14.8629 13.7745 16.4238C13.4281 17.2032 12.9929 17.8881 12.4656 18.39C11.9337 18.8962 11.268 19.25 10.5 19.25C9.73204 19.25 9.06631 18.8962 8.53443 18.39C8.00706 17.8881 7.57193 17.2032 7.22554 16.4238C6.53178 14.8629 6.125 12.7677 6.125 10.5C6.125 8.23226 6.53178 6.13713 7.22554 4.57616C7.57193 3.79678 8.00706 3.1119 8.53443 2.61001Z" fill="#102E39"/>
<path fill-rule="evenodd" clip-rule="evenodd" d="M10.6386 14C7.76187 14 5.33348 14.6766 3.99564 15.5961L3.00439 14.1539C4.73591 12.9638 7.55607 12.25 10.6386 12.25C13.5489 12.25 16.2141 12.8857 17.9559 13.9488L17.0442 15.4425C15.6612 14.5985 13.3428 14 10.6386 14Z" fill="#102E39"/>
<path fill-rule="evenodd" clip-rule="evenodd" d="M10.5561 8.75013C7.50636 8.75013 4.71493 8.03566 3.00049 6.84352L3.99956 5.40674C5.31901 6.32422 7.7155 7.00013 10.5561 7.00013C13.3251 7.00013 15.677 6.35756 17.0174 5.47127L17.9826 6.93104C16.2617 8.06887 13.5347 8.75013 10.5561 8.75013Z" fill="#102E39"/>
</svg>
