<svg width="81" height="80" viewBox="0 0 81 80" fill="none" xmlns="http://www.w3.org/2000/svg">
<circle cx="40.5" cy="40" r="40" fill="#3C8DE8"/>
<path fill-rule="evenodd" clip-rule="evenodd" d="M53.0428 23.0282C56.3431 22.0852 59.3943 25.1365 58.4514 28.4368L50.1188 57.6007C48.7299 62.4619 42.2363 63.3751 39.5605 59.0854L33.7326 49.7422C33.2283 48.9337 32.5458 48.2513 31.7374 47.747L22.3942 41.919C18.1045 39.2433 19.0176 32.7497 23.8789 31.3607L53.0428 23.0282ZM54.2971 27.0294C54.2759 27.0234 54.2436 27.0185 54.1875 27.0345L25.0235 35.3671C23.6346 35.7639 23.3737 37.6192 24.5993 38.3837L33.9426 44.2117C35.29 45.0522 36.4274 46.1896 37.2679 47.537L43.0958 56.8802C43.8603 58.1058 45.7156 57.845 46.1125 56.456L54.445 27.2921C54.4611 27.2359 54.4561 27.2037 54.4502 27.1824C54.4424 27.1545 54.4243 27.1198 54.392 27.0875C54.3597 27.0553 54.325 27.0371 54.2971 27.0294Z" fill="white"/>
<path fill-rule="evenodd" clip-rule="evenodd" d="M44.3233 37.1561C45.1369 37.9697 45.1369 39.2888 44.3233 40.1024L36.9576 47.4681C36.144 48.2817 34.8249 48.2817 34.0113 47.4681C33.1977 46.6545 33.1977 45.3354 34.0113 44.5218L41.377 37.1561C42.1906 36.3425 43.5097 36.3425 44.3233 37.1561Z" fill="white"/>
</svg>
