<svg width="20" height="20" viewBox="0 0 20 20" fill="none" xmlns="http://www.w3.org/2000/svg">
<path fill-rule="evenodd" clip-rule="evenodd" d="M10.0002 3.33329C8.68809 3.33329 7.42067 3.8812 6.47935 4.87141C5.53667 5.86306 5.00016 7.21664 5.00016 8.63632C5.00016 10.7033 6.28043 12.7209 7.70273 14.3002C8.39924 15.0736 9.09827 15.7071 9.62382 16.1474C9.763 16.2639 9.88956 16.3666 10.0002 16.4543C10.1108 16.3666 10.2373 16.2639 10.3765 16.1474C10.9021 15.7071 11.6011 15.0736 12.2976 14.3002C13.7199 12.7209 15.0002 10.7033 15.0002 8.63632C15.0002 7.21664 14.4637 5.86306 13.521 4.87141C12.5797 3.8812 11.3122 3.33329 10.0002 3.33329ZM10.0002 17.5C9.52168 18.1822 9.52148 18.1821 9.52125 18.1819L9.51915 18.1805L9.5145 18.1772L9.49897 18.1661C9.4859 18.1568 9.46743 18.1435 9.44394 18.1264C9.39696 18.0922 9.32981 18.0426 9.24539 17.9784C9.07661 17.8502 8.8383 17.6635 8.55359 17.425C7.98539 16.949 7.22609 16.2615 6.46426 15.4156C4.9699 13.7563 3.3335 11.3421 3.3335 8.63632C3.3335 6.80108 4.02615 5.03304 5.27139 3.7231C6.518 2.41174 8.21804 1.66663 10.0002 1.66663C11.7823 1.66663 13.4823 2.41174 14.7289 3.7231C15.9742 5.03304 16.6668 6.80108 16.6668 8.63632C16.6668 11.3421 15.0304 13.7563 13.5361 15.4156C12.7742 16.2615 12.0149 16.949 11.4467 17.425C11.162 17.6635 10.9237 17.8502 10.7549 17.9784C10.6705 18.0426 10.6034 18.0922 10.5564 18.1264C10.5329 18.1435 10.5144 18.1568 10.5014 18.1661L10.4858 18.1772L10.4812 18.1805L10.4796 18.1815C10.4794 18.1817 10.4786 18.1822 10.0002 17.5ZM10.0002 17.5L10.4786 18.1822C10.1914 18.3836 9.80844 18.3833 9.52125 18.1819L10.0002 17.5Z" fill="#9FA3A8"/>
<path fill-rule="evenodd" clip-rule="evenodd" d="M10.0003 6.66667C9.07985 6.66667 8.33366 7.41286 8.33366 8.33333C8.33366 9.25381 9.07985 10 10.0003 10C10.9208 10 11.667 9.25381 11.667 8.33333C11.667 7.41286 10.9208 6.66667 10.0003 6.66667ZM6.66699 8.33333C6.66699 6.49238 8.15938 5 10.0003 5C11.8413 5 13.3337 6.49238 13.3337 8.33333C13.3337 10.1743 11.8413 11.6667 10.0003 11.6667C8.15938 11.6667 6.66699 10.1743 6.66699 8.33333Z" fill="#9FA3A8"/>
</svg>
