<?xml version="1.0" encoding="utf-8"?>
<!-- Generator: Adobe Illustrator 16.0.0, SVG Export Plug-In . SVG Version: 6.00 Build 0)  -->
<!DOCTYPE svg PUBLIC "-//W3C//DTD SVG 1.1//EN" "http://www.w3.org/Graphics/SVG/1.1/DTD/svg11.dtd">
<svg version="1.1" id="レイヤー_1" xmlns="http://www.w3.org/2000/svg" xmlns:xlink="http://www.w3.org/1999/xlink" x="0px"
	 y="0px" width="1386.927px" height="272.513px" viewBox="0 0 1386.927 272.513" enable-background="new 0 0 1386.927 272.513"
	 xml:space="preserve">
<g>
	<g>
		
			<linearGradient id="SVGID_1_" gradientUnits="userSpaceOnUse" x1="316.4438" y1="153.8979" x2="120.1318" y2="153.898" gradientTransform="matrix(-0.8353 0.5498 0.5498 0.8353 634.3746 -108.5862)">
			<stop  offset="0" style="stop-color:#0090EF"/>
			<stop  offset="0.0132" style="stop-color:#0090EF"/>
			<stop  offset="0.2922" style="stop-color:#009FEF"/>
			<stop  offset="0.6284" style="stop-color:#00AAEF"/>
			<stop  offset="1" style="stop-color:#00AEEF"/>
		</linearGradient>
		<path fill="url(#SVGID_1_)" d="M471.246,187.124c-4.827-11.035-3.877-11.4-3.877-11.4l-14.906-2.152
			c-4.394-0.592-8.688-1.501-12.947-2.639c5.696-17.96-6.718-29.481-3.122-40.856c0.942-2.979,11.282-4.62,14.071-5.619
			c7.003-2.513,13.682-5.776,19.876-9.914c12.167-8.127,22.15-18.959,32.186-29.489c15.013-15.752,29.133-20.348,49.069-11.465
			c24.306,10.832,49.911,17.051,75.238,24.87l-1.956,6.35c-5.253,16.904-23.124,26.339-40.037,21.146l-22.133-6.849l45.095,31.768
			l-3.775,5.419c-8.285,11.725-22.896,16.222-35.871,12.11c-3.037-0.971-5.969-2.424-8.761-4.365l-18.902-13.319l33.038,44.1
			l-5.303,4.003c-8.623,6.463-19.385,7.909-28.913,4.88c-6.118-1.932-11.708-5.757-15.861-11.294l-23.55-31.374l13.21,45.104
			c0.561,1.904-0.78,3.841-2.761,3.962c-5.672,0.365-20.25-3.313-22.612-4.632C479.395,200.813,475.229,196.226,471.246,187.124"/>
		
			<linearGradient id="SVGID_2_" gradientUnits="userSpaceOnUse" x1="105.1665" y1="292.96" x2="-91.146" y2="292.96" gradientTransform="matrix(0.8353 0.5498 -0.5498 0.8353 253.9066 -108.5862)">
			<stop  offset="0" style="stop-color:#0090EF"/>
			<stop  offset="0.0132" style="stop-color:#0090EF"/>
			<stop  offset="0.2922" style="stop-color:#009FEF"/>
			<stop  offset="0.6284" style="stop-color:#00AAEF"/>
			<stop  offset="1" style="stop-color:#00AEEF"/>
		</linearGradient>
		<path fill="url(#SVGID_2_)" d="M164.097,187.124c4.828-11.035,3.881-11.4,3.881-11.4l14.903-2.152
			c4.393-0.592,8.693-1.501,12.947-2.639c-5.695-17.96,6.719-29.481,3.122-40.856c-0.942-2.979-11.278-4.62-14.067-5.619
			c-7.003-2.513-13.681-5.776-19.876-9.914c-12.167-8.127-22.149-18.959-32.189-29.489c-15.013-15.752-29.129-20.348-49.066-11.465
			C59.446,84.422,33.842,90.641,8.509,98.46l1.957,6.35c5.253,16.904,23.124,26.339,40.044,21.146l22.13-6.849L27.55,150.875
			l3.767,5.419c8.286,11.725,22.897,16.222,35.875,12.11c3.041-0.971,5.968-2.424,8.757-4.365l18.902-13.319l-33.035,44.1
			l5.306,4.003c8.615,6.463,19.381,7.909,28.909,4.88c6.118-1.932,11.704-5.757,15.861-11.294l23.546-31.374l-13.205,45.104
			c-0.561,1.904,0.775,3.841,2.755,3.962c5.676,0.365,20.254-3.313,22.617-4.632C155.95,200.813,160.123,196.226,164.097,187.124"/>
		<path fill="#FFFFFF" d="M438.16,149.003c0,45.485-53.771,82.355-120.102,82.355c-66.332,0-120.103-36.87-120.103-82.355
			s53.771-82.355,120.103-82.355C384.39,66.648,438.16,103.519,438.16,149.003"/>
		<path fill="#FFFFFF" d="M319.775,116.403c0,46.427-29.961,84.068-66.917,84.068c-36.955,0-66.912-37.641-66.912-84.068
			c0-46.434,29.957-84.072,66.912-84.072C289.814,32.331,319.775,69.969,319.775,116.403"/>
		<path fill="#FFFFFF" d="M451.891,116.403c0,46.427-29.966,84.068-66.921,84.068s-66.912-37.641-66.912-84.068
			c0-46.434,29.957-84.072,66.912-84.072S451.891,69.969,451.891,116.403"/>
		<linearGradient id="SVGID_3_" gradientUnits="userSpaceOnUse" x1="173.6631" y1="131.4463" x2="462.0352" y2="131.4463">
			<stop  offset="0" style="stop-color:#0090EF"/>
			<stop  offset="0.0132" style="stop-color:#0090EF"/>
			<stop  offset="0.1546" style="stop-color:#009FEF"/>
			<stop  offset="0.325" style="stop-color:#00AAEF"/>
			<stop  offset="0.5133" style="stop-color:#00AEEF"/>
			<stop  offset="1" style="stop-color:#007AEF"/>
		</linearGradient>
		<path fill="url(#SVGID_3_)" d="M462.015,13.198c0.313-2.306-3.081-3.37-4.547-1.437c-10.421,13.73-34.836,15.313-56.859,12.93
			c-3.715-0.398-14.141-0.516-18.769-0.386c-0.576,0.016-1.149,0.008-1.722-0.004c-3.255-0.077-15.805,0.163-31.953,7.303
			c-21.595,9.557-27.115,28.402-27.115,28.402c-0.755,1.352-1.413,2.751-1.941,4.181c-0.207,0.561-0.714,0.869-1.258,0.958
			c-0.552-0.089-1.056-0.398-1.263-0.958c-0.531-1.429-1.181-2.829-1.94-4.181c0,0-5.518-18.846-27.112-28.402
			c-16.153-7.141-28.701-7.38-31.954-7.303c-0.576,0.012-1.144,0.02-1.721,0.004c-4.627-0.129-15.062-0.012-18.776,0.386
			c-22.023,2.382-46.43,0.8-56.848-12.93c-1.469-1.933-4.863-0.869-4.554,1.437c0.227,1.718,0.584,3.41,0.999,5.087
			c-0.195,0.625-0.22,1.323,0.008,2.067c2.233,7.334,6.244,14.095,11.375,19.6c4.664,7.352,5.18,16.133,1.851,24.05
			c-9.313,13.288-12.934,28.507-11.497,44.279c0.544,6.085,1.328,12.15,2.347,18.179c2.776,16.406,6.804,32.043,13.782,47.186
			c4.831,10.482,10.442,20.717,17.274,30.033c4.076,5.546,8.485,10.836,13.365,15.691c13.701,13.637,29.425,32.514,93.714,32.758
			c0.228,0,0.442,0.009,0.674,0.009c0.097,0,0.178,0,0.276,0c0.089,0,0.178,0,0.267,0c0.236,0,0.446-0.009,0.674-0.009
			c64.29-0.244,80.017-19.121,93.714-32.758c19.308-19.214,31.057-44.413,38.076-64.342c1.197-3.402,2.293-7.746,3.259-12.455
			l1.129-1.9c-0.324-0.162-0.527-0.43-0.6-0.731c0.239-1.241,0.466-2.5,0.689-3.767c1.876-8.688,3.321-17.944,4.222-27.894
			c1.434-15.772-2.192-30.992-11.497-44.279c-3.328-7.917-2.816-16.698,1.852-24.05c5.131-5.504,9.139-12.265,11.375-19.6
			c0.22-0.744,0.199-1.441,0-2.067C461.431,16.608,461.796,14.916,462.015,13.198 M342.379,124.057
			c-13.916-49.452,2.749-69.263,27.92-72.981c4.286-0.625,8.895-0.983,13.619-0.991c26.023,0.097,55.432,10.782,54.506,44.239
			c-1.104,39.988-14.77,83.512-55.415,106.075c-22.045,11.027-43.472,14.06-65.158,14.396c-21.688-0.337-43.123-3.37-65.167-14.396
			c-40.638-22.563-54.303-66.087-55.415-106.075c-0.921-33.457,28.482-44.142,54.509-44.239c4.725,0.008,9.333,0.365,13.62,0.991
			c25.17,3.719,43.602,22.556,28.272,72.819L342.379,124.057z"/>
		<path fill="#51412E" d="M300.507,262.221c-3.621,2.667-8.261-1.677-8.513-6.651c-1.896,3.237-7.182,9.796-12.184,8.327
			c-4.165-1.213-6.215-5.099-6.215-10.815c-1.312,1.92-4.04,7.462-8.14,6.342c-3.816-1.04-4.831-7.434,0.552-13.799
			c6.159-7.275,24.659-11.7,33.756-1.307C304.255,249.449,306.849,257.556,300.507,262.221"/>
		<path fill="#51412E" d="M335.186,264.213c3.625,2.664,8.273-1.681,8.517-6.658c1.896,3.24,7.19,9.8,12.181,8.33
			c4.165-1.213,6.219-5.099,6.219-10.814c1.315,1.924,4.039,7.461,8.144,6.341c3.816-1.04,4.823-7.433-0.561-13.798
			c-6.153-7.271-24.649-11.7-33.752-1.312C331.438,251.434,328.844,259.545,335.186,264.213"/>
		<linearGradient id="SVGID_4_" gradientUnits="userSpaceOnUse" x1="252.6479" y1="32.2808" x2="383.0498" y2="32.2808">
			<stop  offset="0" style="stop-color:#0090EF"/>
			<stop  offset="0.0132" style="stop-color:#0090EF"/>
			<stop  offset="0.1546" style="stop-color:#009FEF"/>
			<stop  offset="0.325" style="stop-color:#00AAEF"/>
			<stop  offset="0.5133" style="stop-color:#00AEEF"/>
			<stop  offset="1" style="stop-color:#007AEF"/>
		</linearGradient>
		<path fill="url(#SVGID_4_)" d="M256.549,15.447c9.496,1.907,18.845,4.758,27.603,8.931c8.732,4.169,16.941,9.727,23.307,17.043
			c3.174,3.646,5.854,7.746,7.713,12.187c0.414,0.991,0.787,1.998,1.112,3.021c0.488,1.542,2.696,1.542,3.183,0
			c0.333-1.023,0.703-2.03,1.113-3.021c1.858-4.441,4.538-8.541,7.709-12.187c6.374-7.316,14.578-12.874,23.312-17.043
			c8.764-4.173,18.105-7.024,27.602-8.931c1.278-0.252,2.565-0.45,3.849-0.674c-18.155-5.108-39.777-7.998-65.199-7.998
			c-25.422,0-47.044,2.882-65.203,7.99C253.951,14.993,255.258,15.187,256.549,15.447"/>
		<path fill="#FED300" d="M257.93,99.231c11.033,0,20.006,8.972,20.006,20.006c0,11.035-8.973,20.015-20.006,20.015
			c-11.035,0-20.007-8.98-20.007-20.015C237.923,108.204,246.895,99.231,257.93,99.231 M257.93,88.936
			c-16.734,0-30.306,13.567-30.306,30.302c0,16.739,13.572,30.31,30.306,30.31c16.734,0,30.302-13.57,30.302-30.31
			C288.231,102.503,274.664,88.936,257.93,88.936"/>
		<path d="M263.694,98.432c-11.676-3.674-24.083,2.659-27.704,14.155c-3.622,11.481,2.927,23.782,14.615,27.464
			c11.667,3.67,24.078-2.659,27.696-14.148C281.922,114.415,275.382,102.118,263.694,98.432 M256.695,111.524
			c-1.198,3.808-5.253,5.927-9.061,4.726c-3.808-1.202-5.916-5.253-4.718-9.062c1.202-3.808,5.253-5.915,9.061-4.717
			C255.777,103.664,257.897,107.721,256.695,111.524"/>
		<path fill="#FED300" d="M377.764,99.231c11.034,0,20.007,8.972,20.007,20.006c0,11.035-8.973,20.015-20.007,20.015
			c-11.035,0-20.011-8.98-20.011-20.015C357.753,108.204,366.729,99.231,377.764,99.231 M377.764,88.936
			c-16.742,0-30.302,13.567-30.302,30.302c0,16.739,13.56,30.31,30.302,30.31c16.734,0,30.302-13.57,30.302-30.31
			C408.065,102.503,394.498,88.936,377.764,88.936"/>
		<path d="M383.528,98.432c-11.676-3.674-24.087,2.659-27.703,14.155c-3.617,11.481,2.923,23.782,14.614,27.464
			c11.669,3.67,24.079-2.659,27.696-14.148C401.752,114.415,395.221,102.118,383.528,98.432 M376.529,111.524
			c-1.201,3.808-5.257,5.927-9.061,4.726c-3.809-1.202-5.92-5.253-4.718-9.062c1.201-3.808,5.253-5.915,9.061-4.717
			C375.611,103.664,377.731,107.721,376.529,111.524"/>
		<path fill="#FED300" d="M303.901,96.264l31.13-0.922c0,0,10.734,33.736,11.015,38.442c-4.125,12.654-23.705,29.603-28.204,31.783
			c-5.412-1.973-26.344-24.585-28.19-31.783C293.752,116.583,303.901,96.264,303.901,96.264"/>
		<path d="M447.273,86.825c-15.654-0.885-63.879-4.526-81.449-1.543c-15.009,2.55-41.43,8.745-47.973,8.745
			c-6.545,0-32.965-6.195-47.978-8.745c-17.571-2.983-65.792,0.658-81.446,1.543c-1.246,0.069-2.208,1.121-2.152,2.371
			c0.276,5.931,0.483,10.361,0.699,15.013c0.057,1.247,1.128,2.168,2.354,2.359c5.724,0.889,7.024,6.702,7.414,15.001
			c0.369,7.875,5.301,41.153,31.828,46.394c24.147,4.779,44.218-2.456,54.388-12.293c7.62-7.368,13.288-17.883,18.358-32.968
			c4.53-13.475,12.337-16.913,16.535-16.913c4.197,0,12.003,3.438,16.526,16.913c5.075,15.085,10.747,25.6,18.358,32.968
			c10.174,9.837,30.249,17.072,54.4,12.293c26.521-5.24,31.45-38.519,31.819-46.394c0.386-8.299,1.693-14.112,7.418-15.001
			c1.226-0.191,2.293-1.112,2.354-2.359c0.215-4.652,0.422-9.082,0.698-15.013C449.479,87.946,448.516,86.895,447.273,86.825
			 M291.682,119.465c-4.692,13.962-9.564,22.872-15.788,28.897c-6.464,6.256-17.421,10.328-29.307,10.875
			c-5.237,0.248-10.637-0.174-16.052-1.246c-20.258-4.003-23.36-33.598-23.64-36.956l-0.044-0.386
			c-1.145-7.924,0.313-14.606,4.206-19.32c3.65-4.417,8.607-6.163,12.025-6.321c28.126-1.307,40.045-0.568,45.096,0.288
			c4.92,0.841,14.538,2.96,20.509,5.051C293.411,102,294.727,110.395,291.682,119.465 M428.851,120.65l-0.048,0.386
			c-0.284,3.358-3.379,32.953-23.645,36.956c-5.415,1.072-10.811,1.494-16.043,1.246c-11.887-0.547-22.849-4.619-29.313-10.875
			c-6.223-6.025-11.091-14.936-15.783-28.897c-3.049-9.07-1.729-17.464,3-19.117c5.964-2.091,15.585-4.21,20.505-5.051
			c5.043-0.856,16.966-1.594,45.087-0.288c3.419,0.158,8.38,1.904,12.034,6.321C428.53,106.044,429.992,112.726,428.851,120.65"/>
	</g>
	<g>
		<g>
			<linearGradient id="SVGID_5_" gradientUnits="userSpaceOnUse" x1="665.1738" y1="88.7388" x2="973.9795" y2="88.7388">
				<stop  offset="0" style="stop-color:#0090EF"/>
				<stop  offset="0.0132" style="stop-color:#0090EF"/>
				<stop  offset="0.1546" style="stop-color:#009FEF"/>
				<stop  offset="0.325" style="stop-color:#00AAEF"/>
				<stop  offset="0.5133" style="stop-color:#00AEEF"/>
				<stop  offset="1" style="stop-color:#007AEF"/>
			</linearGradient>
			<path fill="url(#SVGID_5_)" d="M665.174,71.67c0-8.404,1.34-16.003,4.021-22.811c2.679-6.804,6.422-12.752,11.221-17.851
				c4.799-5.091,10.475-9.11,17.025-12.05c6.549-2.935,13.693-4.404,21.436-4.404c7.665,0,14.907,1.47,21.711,4.404
				c6.813,2.94,12.769,6.951,17.862,12.05c5.1,5.091,9.119,11.042,12.059,17.842c2.943,6.804,4.412,14.408,4.412,22.812
				c0,7.729-1.469,14.997-4.412,21.801c-2.939,6.804-6.959,12.735-12.059,17.79c-5.094,5.058-11.05,9.053-17.862,11.993
				c-6.804,2.935-14.046,4.4-21.711,4.4c-4.466,0-8.613-0.666-12.446-2.005c-3.832-1.339-7.426-3.089-10.775-5.249l-0.56,26.457
				c0,2.16-0.349,4.19-1.056,6.089c-0.711,1.892-1.712,3.553-3.021,4.965c-1.299,1.416-2.841,2.513-4.629,3.292
				c-1.785,0.78-3.759,1.173-5.919,1.173s-4.147-0.393-5.975-1.173c-1.819-0.779-3.442-1.876-4.856-3.288
				c-1.411-1.413-2.508-3.069-3.288-4.965c-0.788-1.896-1.178-3.925-1.178-6.078V71.67z M719.992,97.169
				c3.496,0,6.828-0.686,9.992-2.067c3.165-1.375,5.935-3.255,8.318-5.634c2.381-2.383,4.278-5.173,5.695-8.376
				c1.411-3.198,2.118-6.588,2.118-10.16s-0.707-7.048-2.118-10.434c-1.417-3.389-3.314-6.163-5.695-8.323
				c-2.384-2.156-5.153-3.833-8.318-5.021c-3.164-1.19-6.496-1.787-9.992-1.787c-3.5,0-6.792,0.67-9.876,2.009
				c-3.095,1.34-5.772,3.143-8.04,5.417c-2.272,2.269-4.076,5.131-5.414,8.598c-1.34,3.459-2.014,6.938-2.014,10.434
				c0,3.499,0.674,6.796,2.014,9.882c1.338,3.089,3.142,5.769,5.414,8.038c2.268,2.273,4.945,4.075,8.04,5.416
				C713.2,96.499,716.492,97.169,719.992,97.169z M788.428,109.563c0.228-7.592,1.859-14.736,4.911-21.436
				c3.053-6.698,7.129-12.561,12.229-17.586c5.098-5.025,11.013-9.004,17.748-11.943c6.741-2.94,13.901-4.482,21.493-4.636h1.006
				c4.913,0.077,8.688,1.493,11.327,4.246c2.647,2.753,3.966,6.252,3.966,10.49c0,2.16-0.41,4.133-1.229,5.919
				s-1.916,3.349-3.288,4.689c-1.38,1.34-3.021,2.383-4.912,3.125c-1.9,0.743-3.894,1.117-5.977,1.117
				c-3.724,0-7.237,0.707-10.547,2.119c-3.313,1.417-6.219,3.353-8.713,5.806c-2.492,2.459-4.482,5.342-5.971,8.655
				c-1.491,3.313-2.269,6.866-2.342,10.661v36.285c0,2.084-0.374,4.02-1.121,5.807c-0.744,1.786-1.787,3.329-3.126,4.627
				c-1.34,1.308-2.882,2.331-4.628,3.073c-1.754,0.743-3.631,1.117-5.645,1.117c-2.005,0-3.945-0.374-5.804-1.117
				c-1.859-0.742-3.477-1.766-4.856-3.073c-1.376-1.299-2.477-2.842-3.292-4.627c-0.819-1.787-1.229-3.723-1.229-5.807V109.563z
				 M865.017,108.556c0-7.518,1.43-14.586,4.296-21.211c2.867-6.622,6.771-12.41,11.724-17.363
				c4.949-4.944,10.719-8.854,17.303-11.717c6.586-2.866,13.642-4.303,21.161-4.303c7.513,0,14.582,1.437,21.208,4.303
				c6.624,2.862,12.393,6.772,17.306,11.717c4.912,4.953,8.802,10.741,11.662,17.363c2.867,6.625,4.304,13.693,4.304,21.211
				c0,7.519-1.437,14.566-4.304,21.16c-2.86,6.585-6.75,12.333-11.662,17.246c-4.913,4.912-10.682,8.802-17.306,11.667
				c-6.626,2.866-13.695,4.295-21.208,4.295c-7.52,0-14.575-1.429-21.161-4.295c-6.584-2.866-12.354-6.756-17.303-11.667
				c-4.953-4.913-8.856-10.661-11.724-17.246C866.446,123.122,865.017,116.075,865.017,108.556z M894.71,108.556
				c0,3.427,0.653,6.625,1.958,9.601c1.307,2.977,3.101,5.583,5.375,7.816c2.272,2.232,4.903,3.982,7.883,5.244
				c2.987,1.267,6.154,1.9,9.517,1.9c3.431,0,6.657-0.633,9.679-1.9c3.019-1.262,5.649-3.012,7.883-5.244
				c2.24-2.233,4.011-4.839,5.319-7.816c1.307-2.976,1.956-6.174,1.956-9.601c0-3.422-0.649-6.625-1.956-9.601
				c-1.309-2.977-3.079-5.583-5.319-7.815c-2.233-2.233-4.864-3.979-7.883-5.246c-3.021-1.266-6.248-1.899-9.679-1.899
				c-3.362,0-6.529,0.634-9.517,1.899c-2.979,1.267-5.61,3.013-7.883,5.246c-2.274,2.232-4.068,4.838-5.375,7.815
				C895.363,101.931,894.71,105.134,894.71,108.556z"/>
			<path fill="#002F3A" d="M990.722,72.607c0-8.408,1.21-16.186,3.629-23.331c2.421-7.145,5.919-13.307,10.5-18.48
				c4.571-5.172,10.193-9.228,16.855-12.171c6.657-2.938,14.269-4.409,22.831-4.409c8.559,0,16.224,1.417,22.994,4.247
				c6.772,2.826,12.545,6.845,17.308,12.058c4.762,5.208,8.406,11.538,10.94,18.974c2.529,7.446,3.797,15.785,3.797,25.008v73.236
				c0,2.16-0.412,4.149-1.231,5.976c-0.819,1.823-1.917,3.403-3.288,4.742c-1.38,1.339-3.021,2.403-4.912,3.182
				c-1.9,0.78-3.894,1.174-5.977,1.174c-2.086,0-4.061-0.394-5.919-1.174c-1.859-0.779-3.475-1.843-4.854-3.182
				c-1.378-1.339-2.477-2.919-3.292-4.742c-0.821-1.827-1.231-3.816-1.231-5.976V74.504c0-9.451-2.025-16.783-6.081-21.991
				c-4.061-5.209-9.923-7.815-17.588-7.815c-7.663,0-13.559,2.346-17.69,7.031c-4.133,4.693-6.196,12.321-6.196,22.889v73.123
				c0,2.16-0.39,4.149-1.176,5.976c-0.78,1.823-1.877,3.403-3.29,4.742c-1.416,1.339-3.053,2.403-4.912,3.182
				c-1.862,0.78-3.836,1.174-5.919,1.174c-2.159,0-4.149-0.394-5.975-1.174c-1.819-0.779-3.442-1.843-4.855-3.182
				c-1.414-1.339-2.509-2.919-3.289-4.742c-0.787-1.827-1.178-3.816-1.178-5.976V72.607z"/>
			<path fill="#002F3A" d="M1171.25,162.924c-7.52,0-14.566-1.429-21.161-4.295c-6.584-2.866-12.349-6.756-17.302-11.667
				c-4.947-4.913-8.857-10.661-11.724-17.246c-2.863-6.594-4.296-13.641-4.296-21.16c0-7.518,1.433-14.586,4.296-21.211
				c2.866-6.622,6.776-12.41,11.724-17.363c4.953-4.944,10.718-8.854,17.302-11.717c6.595-2.866,13.642-4.303,21.161-4.303
				c7.441,0,14.436,1.416,20.988,4.246c6.549,2.826,12.279,6.658,17.193,11.497c4.911,4.839,8.821,10.531,11.72,17.083
				c2.906,6.548,4.429,13.506,4.579,20.875v40.077c0,2.16-0.391,4.149-1.17,5.976c-0.786,1.823-1.863,3.423-3.239,4.798
				c-1.38,1.381-2.995,2.461-4.856,3.24c-1.862,0.78-3.834,1.169-5.919,1.169c-2.829,0-5.302-0.633-7.42-1.896
				c-2.128-1.262-3.816-2.976-5.083-5.136c-4.02,2.233-8.262,3.962-12.728,5.188C1180.852,162.315,1176.161,162.924,1171.25,162.924
				z M1171.192,133.118c3.435,0,6.657-0.633,9.679-1.9c3.021-1.262,5.649-3.012,7.887-5.244c2.237-2.233,4.011-4.839,5.315-7.816
				c1.307-2.976,1.96-6.174,1.96-9.601c0-3.422-0.653-6.625-1.96-9.601c-1.305-2.977-3.078-5.583-5.315-7.815
				c-2.237-2.233-4.866-3.979-7.887-5.246c-3.021-1.266-6.244-1.899-9.679-1.899c-3.357,0-6.529,0.634-9.513,1.899
				c-2.983,1.267-5.614,3.013-7.887,5.246c-2.274,2.232-4.068,4.838-5.371,7.815c-1.305,2.976-1.957,6.179-1.957,9.601
				c0,3.427,0.652,6.625,1.957,9.601c1.303,2.977,3.097,5.583,5.371,7.816c2.272,2.232,4.903,3.982,7.887,5.244
				C1164.663,132.484,1167.835,133.118,1171.192,133.118z"/>
			<path fill="#002F3A" d="M1241.807,75.064c-0.893-2.009-1.34-4.019-1.34-6.028c0-1.938,0.374-3.813,1.116-5.64
				c0.743-1.823,1.767-3.422,3.073-4.798c1.3-1.381,2.862-2.494,4.686-3.354c1.827-0.852,3.816-1.283,5.977-1.283
				c2.825,0,5.468,0.783,7.925,2.347c2.454,1.562,4.313,3.722,5.58,6.475l20.543,49.014l20.435-48.904
				c1.112-2.753,2.914-4.913,5.416-6.472c2.492-1.567,5.147-2.346,7.98-2.346c2.16,0,4.149,0.41,5.969,1.225
				c1.827,0.821,3.408,1.941,4.749,3.354c1.34,1.414,2.38,3.012,3.126,4.799c0.738,1.786,1.112,3.613,1.112,5.473
				c0.073,1.039-0.016,2.083-0.275,3.126c-0.261,1.04-0.617,2.083-1.064,3.126l-33.714,77.589c-1.047,2.306-2.646,4.336-4.803,6.082
				c-2.16,1.753-4.876,2.703-8.146,2.85c-3.126,0-5.992-0.78-8.6-2.347c-2.605-1.56-4.537-3.755-5.805-6.585L1241.807,75.064z"/>
			<path fill="#002F3A" d="M1353.565,29.067c0-2.233,0.421-4.295,1.272-6.195c0.854-1.899,2.008-3.572,3.453-5.025
				c1.444-1.454,3.134-2.583,5.058-3.402c1.933-0.82,3.97-1.23,6.121-1.23c2.152,0,4.191,0.41,6.123,1.23
				c1.925,0.82,3.613,1.948,5.059,3.402c1.444,1.453,2.597,3.126,3.45,5.025c0.854,1.9,1.283,3.962,1.283,6.195
				c0,2.16-0.43,4.206-1.283,6.138c-0.854,1.941-2.006,3.63-3.45,5.083c-1.445,1.454-3.134,2.586-5.059,3.402
				c-1.932,0.82-3.971,1.23-6.123,1.23c-2.151,0-4.188-0.41-6.121-1.23c-1.924-0.816-3.613-1.948-5.058-3.402
				c-1.445-1.453-2.6-3.142-3.453-5.083C1353.986,33.273,1353.565,31.227,1353.565,29.067z M1354.458,68.698
				c0-2.005,0.405-3.905,1.218-5.691c0.819-1.787,1.916-3.35,3.28-4.689c1.372-1.34,2.987-2.399,4.838-3.179
				c1.861-0.788,3.825-1.177,5.896-1.177c2.006,0,3.898,0.389,5.676,1.177c1.777,0.78,3.32,1.839,4.621,3.179
				c1.29,1.339,2.312,2.902,3.052,4.689c0.739,1.787,1.113,3.686,1.113,5.691v79.489c0,2.014-0.391,3.91-1.17,5.696
				c-0.78,1.786-1.836,3.349-3.168,4.689c-1.33,1.339-2.891,2.403-4.668,3.182c-1.786,0.78-3.67,1.169-5.676,1.169
				c-2.005,0-3.914-0.389-5.724-1.169c-1.818-0.779-3.418-1.843-4.79-3.182c-1.364-1.34-2.461-2.903-3.28-4.689
				c-0.813-1.787-1.218-3.682-1.218-5.696V68.698z"/>
		</g>
		<g>
			<path fill="#6D6D6D" d="M690.778,214.182c2.156,0,3.667,0.292,4.892,0.872c-0.641-0.99-0.989-2.212-0.989-3.495
				c0-3.84,3.084-6.926,6.929-6.926c3.847,0,6.931,3.085,6.931,6.926c0,3.788-3.084,6.874-6.931,6.874
				c-1.283,0-2.504-0.35-3.552-0.991c0.584,1.165,0.873,2.562,0.873,4.138c0,0.642-0.062,1.279-0.116,1.977
				c-2.503,17.526-14.79,31.036-33.425,35.872c-0.522,0.174-1.048,0.232-1.515,0.232c-1.631,0-2.853-0.873-3.377-2.444
				c-0.175-0.467-0.232-0.991-0.232-1.454c0-1.632,0.931-2.915,2.677-3.438c15.434-4.138,26.031-14.559,27.836-28.301
				c0.058-0.292,0.058-0.584,0.058-0.815c0-1.397-0.698-1.863-2.388-1.863h-32.14c-1.812,0-2.916-1.572-2.916-3.609
				c0-2.039,1.104-3.552,2.916-3.552H690.778z M698.289,211.559c0,1.868,1.457,3.321,3.32,3.321c1.865,0,3.318-1.453,3.318-3.321
				c0-1.859-1.453-3.317-3.318-3.317C699.746,208.242,698.289,209.7,698.289,211.559z"/>
			<path fill="#6D6D6D" d="M759.343,248.535c0,4.952-2.617,7.283-7.454,7.283h-30.045c-4.779,0-7.396-2.331-7.396-7.283v-29.173
				c0-5.005,2.617-7.335,7.396-7.335h30.045c4.837,0,7.454,2.33,7.454,7.335V248.535z M749.153,248.889
				c2.095,0,2.623-0.581,2.623-2.562v-24.81c0-1.977-0.528-2.562-2.623-2.562h-24.574c-2.098,0-2.616,0.585-2.616,2.562v24.81
				c0,1.98,0.519,2.562,2.616,2.562H749.153z"/>
			<path fill="#6D6D6D" d="M774.978,248.596c-0.76,1.4-1.808,2.1-3.086,2.1c-0.703,0-1.457-0.236-2.269-0.759
				c-1.108-0.642-1.576-1.628-1.576-2.736c0-0.76,0.235-1.572,0.699-2.392c3.726-6.346,7.341-14.087,9.548-21.192
				c-1.628,0.058-3.435,0.058-5.236,0.058c-0.761,0-1.576,0-2.33,0c-1.804-0.058-2.793-1.283-2.793-3.265
				c0-1.977,1.104-3.256,2.967-3.256c1.279,0,2.562,0,3.845,0c1.859,0,3.726,0,5.472-0.06c0.699-2.562,1.222-5.124,1.688-7.628
				c0.236-1.689,1.453-2.562,3.145-2.562c0.291,0,0.584,0,0.875,0.061c1.803,0.349,2.851,1.218,2.851,2.851
				c0,0.292-0.058,0.584-0.113,0.933c-0.351,1.689-0.817,3.727-1.34,5.821c2.33-0.174,4.481-0.348,6.464-0.641
				c0.174-0.057,0.405-0.057,0.584-0.057c1.627,0,2.558,1.047,2.851,2.793c0,0.178,0,0.292,0,0.466c0,1.632-0.873,2.797-2.738,3.146
				c-2.735,0.462-5.878,0.698-8.968,0.93C783.012,231.712,778.996,241.435,774.978,248.596z M808.052,249.355
				c0,6.114-3.67,9.955-12.869,9.955c-7.859,0-12.926-4.076-12.926-10.189c0-6.171,5.24-10.482,12.926-10.482
				c2.217,0,4.133,0.236,6.058,0.698c-0.293-2.736-0.524-6.228-0.524-9.374c0-2.156,1.397-3.029,3.26-3.029
				c1.925,0,3.32,0.929,3.32,3.029c0,3.901,0.231,7.685,0.642,11.354c3.666,1.746,7.394,4.312,10.246,7.105
				c0.757,0.755,1.105,1.575,1.105,2.444c0,0.821-0.287,1.632-0.869,2.33c-0.697,0.816-1.519,1.283-2.388,1.283
				c-0.758,0-1.517-0.349-2.215-0.991c-1.804-1.801-3.96-3.613-5.766-4.716V249.355z M795.36,244.403
				c-4.019,0-6.584,1.806-6.584,4.603c0,2.619,2.388,4.19,6.349,4.19c4.369,0,6.582-1.509,6.582-5.237c0-0.702,0-1.339-0.062-2.216
				C799.9,244.869,797.57,244.403,795.36,244.403z M817.487,221.229c0.989,0.698,1.453,1.689,1.453,2.736
				c0,0.698-0.231,1.396-0.638,2.038c-0.642,0.929-1.633,1.453-2.681,1.453c-0.696,0-1.399-0.232-2.099-0.642
				c-3.198-2.208-7.33-4.425-11.236-6.053c-1.047-0.466-1.571-1.515-1.571-2.562c0-0.641,0.174-1.339,0.58-1.924
				c0.76-1.104,1.807-1.632,2.854-1.632c0.524,0,1.051,0.123,1.571,0.293C809.741,216.512,814.344,218.956,817.487,221.229z
				 M838.125,217.734c-3.315,0.872-6.867,1.396-10.652,1.396c-1.744,0-2.853-1.047-2.972-3.085c0-0.118,0-0.174,0-0.292
				c0-1.746,1.048-3.085,2.916-3.146c5.415-0.115,10.77-0.638,15.776-1.454c0.409-0.057,0.758-0.057,1.108-0.057
				c1.631,0,2.74,0.58,3.552,1.98c0.349,0.638,0.522,1.341,0.522,1.977c0,1.108-0.58,2.213-1.627,2.968
				c-8.736,5.943-13.567,13.978-13.567,22.072c0,8.035,5.005,12.054,11.237,12.054c8.793,0,13.917-5.939,13.917-18.578
				c0-6.926-1.104-13.162-2.854-18.167c-0.117-0.41-0.175-0.815-0.175-1.165c0-1.453,0.935-2.444,2.504-2.91
				c0.468-0.119,0.931-0.175,1.341-0.175c1.457,0,2.562,0.755,3.086,2.095c3.146,7.283,8.212,14.208,13.335,18.812
				c0.931,0.813,1.341,1.802,1.341,2.793c0,0.934-0.351,1.803-0.992,2.562c-0.584,0.759-1.513,1.165-2.442,1.165
				c-0.877,0-1.812-0.406-2.509-1.226c-3.317-3.317-5.765-7.101-7.974-12.11l-0.293,0.118c1.223,3.962,1.92,8.038,1.92,11.237
				c0,13.916-7.279,22.479-20.147,22.479c-10.19,0-18.105-6.289-18.105-18.926c0-8.152,4.363-16.13,11.878-22.187L838.125,217.734z
				 M866.836,208.242c0.755,0,1.457,0.35,1.925,1.047c1.104,1.628,2.33,3.959,3.028,5.478c0.171,0.406,0.287,0.812,0.287,1.217
				c0,0.82-0.409,1.519-1.221,1.924c-0.349,0.174-0.816,0.292-1.226,0.292c-0.812,0-1.688-0.41-2.152-1.339
				c-0.754-1.632-1.804-3.784-2.793-5.241c-0.235-0.411-0.349-0.759-0.349-1.165c0-0.816,0.463-1.514,1.279-1.924
				C866.024,208.36,866.431,208.242,866.836,208.242z M873.648,205.974c0.76,0,1.396,0.348,1.924,1.104
				c1.048,1.396,2.095,3.435,2.794,5.067c0.178,0.348,0.235,0.698,0.235,1.047c0,0.933-0.528,1.688-1.283,2.038
				c-0.348,0.174-0.698,0.235-1.104,0.235c-0.819,0-1.631-0.411-2.155-1.4c-0.642-1.397-1.689-3.374-2.679-4.892
				c-0.175-0.349-0.289-0.755-0.289-1.047c0-0.873,0.576-1.571,1.397-1.92C872.895,206.03,873.242,205.974,873.648,205.974z"/>
		</g>
	</g>
</g>
<g>
	<g>
		
			<linearGradient id="SVGID_6_" gradientUnits="userSpaceOnUse" x1="602.5596" y1="588.5859" x2="406.2471" y2="588.5859" gradientTransform="matrix(-0.8353 0.5498 0.5498 0.8353 634.3746 -108.5862)">
			<stop  offset="0" style="stop-color:#0090EF"/>
			<stop  offset="0.0132" style="stop-color:#0090EF"/>
			<stop  offset="0.2922" style="stop-color:#009FEF"/>
			<stop  offset="0.6284" style="stop-color:#00AAEF"/>
			<stop  offset="1" style="stop-color:#00AEEF"/>
		</linearGradient>
		<path fill="url(#SVGID_6_)" d="M471.246,707.525c-4.827-11.034-3.877-11.4-3.877-11.4l-14.906-2.151
			c-4.394-0.593-8.688-1.502-12.947-2.639c5.696-17.96-6.718-29.482-3.122-40.857c0.942-2.979,11.282-4.62,14.071-5.619
			c7.003-2.513,13.682-5.776,19.876-9.914c12.167-8.127,22.15-18.958,32.186-29.489c15.013-15.752,29.133-20.347,49.069-11.464
			c24.306,10.831,49.911,17.05,75.238,24.87l-1.956,6.349c-5.253,16.905-23.124,26.339-40.037,21.148l-22.133-6.85l45.095,31.768
			l-3.775,5.419c-8.285,11.724-22.896,16.222-35.871,12.11c-3.037-0.97-5.969-2.424-8.761-4.364l-18.902-13.32l33.038,44.101
			l-5.303,4.003c-8.623,6.463-19.385,7.908-28.913,4.879c-6.118-1.932-11.708-5.756-15.861-11.294l-23.55-31.373l13.21,45.103
			c0.561,1.905-0.78,3.841-2.761,3.962c-5.672,0.365-20.25-3.313-22.612-4.631C479.395,721.214,475.229,716.627,471.246,707.525"/>
		
			<linearGradient id="SVGID_7_" gradientUnits="userSpaceOnUse" x1="391.2822" y1="727.6489" x2="194.9697" y2="727.6489" gradientTransform="matrix(0.8353 0.5498 -0.5498 0.8353 253.9066 -108.5862)">
			<stop  offset="0" style="stop-color:#0090EF"/>
			<stop  offset="0.0132" style="stop-color:#0090EF"/>
			<stop  offset="0.2922" style="stop-color:#009FEF"/>
			<stop  offset="0.6284" style="stop-color:#00AAEF"/>
			<stop  offset="1" style="stop-color:#00AEEF"/>
		</linearGradient>
		<path fill="url(#SVGID_7_)" d="M164.097,707.525c4.828-11.034,3.881-11.4,3.881-11.4l14.903-2.151
			c4.393-0.593,8.693-1.502,12.947-2.639c-5.695-17.96,6.719-29.482,3.122-40.857c-0.942-2.979-11.278-4.62-14.067-5.619
			c-7.003-2.513-13.681-5.776-19.876-9.914c-12.167-8.127-22.149-18.958-32.189-29.489c-15.013-15.752-29.129-20.347-49.066-11.464
			c-24.305,10.831-49.909,17.05-75.242,24.87l1.957,6.349c5.253,16.905,23.124,26.339,40.044,21.148l22.13-6.85L27.55,671.276
			l3.767,5.419c8.286,11.724,22.897,16.222,35.875,12.11c3.041-0.97,5.968-2.424,8.757-4.364l18.902-13.32l-33.035,44.101
			l5.306,4.003c8.615,6.463,19.381,7.908,28.909,4.879c6.118-1.932,11.704-5.756,15.861-11.294l23.546-31.373l-13.205,45.103
			c-0.561,1.905,0.775,3.841,2.755,3.962c5.676,0.365,20.254-3.313,22.617-4.631C155.95,721.214,160.123,716.627,164.097,707.525"/>
		<path fill="#FFFFFF" d="M438.16,669.404c0,45.485-53.771,82.355-120.102,82.355c-66.332,0-120.103-36.871-120.103-82.355
			c0-45.484,53.771-82.355,120.103-82.355C384.39,587.049,438.16,623.92,438.16,669.404"/>
		<path fill="#FFFFFF" d="M319.775,636.805c0,46.426-29.961,84.069-66.917,84.069c-36.955,0-66.912-37.643-66.912-84.069
			c0-46.435,29.957-84.072,66.912-84.072C289.814,552.733,319.775,590.37,319.775,636.805"/>
		<path fill="#FFFFFF" d="M451.891,636.805c0,46.426-29.966,84.069-66.921,84.069s-66.912-37.643-66.912-84.069
			c0-46.435,29.957-84.072,66.912-84.072S451.891,590.37,451.891,636.805"/>
		<linearGradient id="SVGID_8_" gradientUnits="userSpaceOnUse" x1="173.6631" y1="651.8477" x2="462.0352" y2="651.8477">
			<stop  offset="0" style="stop-color:#0090EF"/>
			<stop  offset="0.0132" style="stop-color:#0090EF"/>
			<stop  offset="0.1546" style="stop-color:#009FEF"/>
			<stop  offset="0.325" style="stop-color:#00AAEF"/>
			<stop  offset="0.5133" style="stop-color:#00AEEF"/>
			<stop  offset="1" style="stop-color:#007AEF"/>
		</linearGradient>
		<path fill="url(#SVGID_8_)" d="M462.015,533.6c0.313-2.306-3.081-3.37-4.547-1.438c-10.421,13.73-34.836,15.313-56.859,12.93
			c-3.715-0.398-14.141-0.516-18.769-0.386c-0.576,0.017-1.149,0.009-1.722-0.004c-3.255-0.077-15.805,0.163-31.953,7.304
			c-21.595,9.557-27.115,28.401-27.115,28.401c-0.755,1.352-1.413,2.752-1.941,4.182c-0.207,0.56-0.714,0.868-1.258,0.958
			c-0.552-0.09-1.056-0.398-1.263-0.958c-0.531-1.43-1.181-2.83-1.94-4.182c0,0-5.518-18.845-27.112-28.401
			c-16.153-7.142-28.701-7.381-31.954-7.304c-0.576,0.013-1.144,0.021-1.721,0.004c-4.627-0.129-15.062-0.012-18.776,0.386
			c-22.023,2.383-46.43,0.8-56.848-12.93c-1.469-1.932-4.863-0.868-4.554,1.438c0.227,1.717,0.584,3.41,0.999,5.086
			c-0.195,0.625-0.22,1.324,0.008,2.067c2.233,7.335,6.244,14.095,11.375,19.6c4.664,7.353,5.18,16.133,1.851,24.05
			c-9.313,13.288-12.934,28.507-11.497,44.279c0.544,6.085,1.328,12.151,2.347,18.179c2.776,16.406,6.804,32.043,13.782,47.187
			c4.831,10.481,10.442,20.716,17.274,30.034c4.076,5.545,8.485,10.834,13.365,15.69c13.701,13.636,29.425,32.514,93.714,32.758
			c0.228,0,0.442,0.008,0.674,0.008c0.097,0,0.178,0,0.276,0c0.089,0,0.178,0,0.267,0c0.236,0,0.446-0.008,0.674-0.008
			c64.29-0.244,80.017-19.122,93.714-32.758c19.308-19.214,31.057-44.414,38.076-64.342c1.197-3.402,2.293-7.747,3.259-12.456
			l1.129-1.899c-0.324-0.163-0.527-0.431-0.6-0.73c0.239-1.242,0.466-2.501,0.689-3.768c1.876-8.688,3.321-17.945,4.222-27.895
			c1.434-15.772-2.192-30.992-11.497-44.279c-3.328-7.917-2.816-16.697,1.852-24.05c5.131-5.504,9.139-12.264,11.375-19.6
			c0.22-0.743,0.199-1.441,0-2.067C461.431,537.009,461.796,535.316,462.015,533.6 M342.379,644.458
			c-13.916-49.451,2.749-69.262,27.92-72.981c4.286-0.625,8.895-0.982,13.619-0.991c26.023,0.098,55.432,10.783,54.506,44.239
			c-1.104,39.988-14.77,83.512-55.415,106.077c-22.045,11.025-43.472,14.059-65.158,14.395c-21.688-0.336-43.123-3.37-65.167-14.395
			c-40.638-22.564-54.303-66.088-55.415-106.077c-0.921-33.456,28.482-44.141,54.509-44.239c4.725,0.009,9.333,0.366,13.62,0.991
			c25.17,3.719,43.602,22.555,28.272,72.819L342.379,644.458z"/>
		<path fill="#51412E" d="M300.507,782.622c-3.621,2.667-8.261-1.677-8.513-6.65c-1.896,3.236-7.182,9.797-12.184,8.327
			c-4.165-1.214-6.215-5.099-6.215-10.815c-1.312,1.92-4.04,7.461-8.14,6.341c-3.816-1.039-4.831-7.433,0.552-13.799
			c6.159-7.274,24.659-11.7,33.756-1.306C304.255,769.85,306.849,777.957,300.507,782.622"/>
		<path fill="#51412E" d="M335.186,784.615c3.625,2.663,8.273-1.681,8.517-6.659c1.896,3.24,7.19,9.8,12.181,8.332
			c4.165-1.215,6.219-5.1,6.219-10.816c1.315,1.924,4.039,7.462,8.144,6.342c3.816-1.04,4.823-7.434-0.561-13.799
			c-6.153-7.271-24.649-11.7-33.752-1.312C331.438,771.835,328.844,779.946,335.186,784.615"/>
		<linearGradient id="SVGID_9_" gradientUnits="userSpaceOnUse" x1="252.6479" y1="552.6816" x2="383.0498" y2="552.6816">
			<stop  offset="0" style="stop-color:#0090EF"/>
			<stop  offset="0.0132" style="stop-color:#0090EF"/>
			<stop  offset="0.1546" style="stop-color:#009FEF"/>
			<stop  offset="0.325" style="stop-color:#00AAEF"/>
			<stop  offset="0.5133" style="stop-color:#00AEEF"/>
			<stop  offset="1" style="stop-color:#007AEF"/>
		</linearGradient>
		<path fill="url(#SVGID_9_)" d="M256.549,535.848c9.496,1.909,18.845,4.758,27.603,8.931c8.732,4.169,16.941,9.728,23.307,17.043
			c3.174,3.646,5.854,7.747,7.713,12.187c0.414,0.991,0.787,1.998,1.112,3.021c0.488,1.542,2.696,1.542,3.183,0
			c0.333-1.023,0.703-2.03,1.113-3.021c1.858-4.44,4.538-8.542,7.709-12.187c6.374-7.315,14.578-12.874,23.312-17.043
			c8.764-4.173,18.105-7.022,27.602-8.931c1.278-0.251,2.565-0.45,3.849-0.674c-18.155-5.107-39.777-7.997-65.199-7.997
			c-25.422,0-47.044,2.882-65.203,7.989C253.951,535.394,255.258,535.589,256.549,535.848"/>
		<path fill="#FED300" d="M257.93,619.633c11.033,0,20.006,8.972,20.006,20.006c0,11.034-8.973,20.015-20.006,20.015
			c-11.035,0-20.007-8.981-20.007-20.015C237.923,628.604,246.895,619.633,257.93,619.633 M257.93,609.337
			c-16.734,0-30.306,13.568-30.306,30.302c0,16.738,13.572,30.31,30.306,30.31c16.734,0,30.302-13.571,30.302-30.31
			C288.231,622.905,274.664,609.337,257.93,609.337"/>
		<path d="M263.694,618.833c-11.676-3.674-24.083,2.659-27.704,14.156c-3.622,11.48,2.927,23.782,14.615,27.464
			c11.667,3.669,24.078-2.66,27.696-14.149C281.922,634.816,275.382,622.519,263.694,618.833 M256.695,631.925
			c-1.198,3.808-5.253,5.927-9.061,4.726c-3.808-1.202-5.916-5.253-4.718-9.061c1.202-3.808,5.253-5.915,9.061-4.717
			C255.777,624.066,257.897,628.122,256.695,631.925"/>
		<path fill="#FED300" d="M377.764,619.633c11.034,0,20.007,8.972,20.007,20.006c0,11.034-8.973,20.015-20.007,20.015
			c-11.035,0-20.011-8.981-20.011-20.015C357.753,628.604,366.729,619.633,377.764,619.633 M377.764,609.337
			c-16.742,0-30.302,13.568-30.302,30.302c0,16.738,13.56,30.31,30.302,30.31c16.734,0,30.302-13.571,30.302-30.31
			C408.065,622.905,394.498,609.337,377.764,609.337"/>
		<path d="M383.528,618.833c-11.676-3.674-24.087,2.659-27.703,14.156c-3.617,11.48,2.923,23.782,14.614,27.464
			c11.669,3.669,24.079-2.66,27.696-14.149C401.752,634.816,395.221,622.519,383.528,618.833 M376.529,631.925
			c-1.201,3.808-5.257,5.927-9.061,4.726c-3.809-1.202-5.92-5.253-4.718-9.061c1.201-3.808,5.253-5.915,9.061-4.717
			C375.611,624.066,377.731,628.122,376.529,631.925"/>
		<path fill="#FED300" d="M303.901,616.665l31.13-0.921c0,0,10.734,33.736,11.015,38.441c-4.125,12.654-23.705,29.603-28.204,31.784
			c-5.412-1.973-26.344-24.585-28.19-31.784C293.752,636.983,303.901,616.665,303.901,616.665"/>
		<path d="M447.273,607.226c-15.654-0.885-63.879-4.526-81.449-1.542c-15.009,2.549-41.43,8.744-47.973,8.744
			c-6.545,0-32.965-6.195-47.978-8.744c-17.571-2.984-65.792,0.657-81.446,1.542c-1.246,0.069-2.208,1.121-2.152,2.371
			c0.276,5.931,0.483,10.361,0.699,15.013c0.057,1.247,1.128,2.168,2.354,2.359c5.724,0.889,7.024,6.703,7.414,15.001
			c0.369,7.876,5.301,41.153,31.828,46.395c24.147,4.778,44.218-2.457,54.388-12.293c7.62-7.368,13.288-17.883,18.358-32.969
			c4.53-13.474,12.337-16.912,16.535-16.912c4.197,0,12.003,3.438,16.526,16.912c5.075,15.086,10.747,25.601,18.358,32.969
			c10.174,9.836,30.249,17.071,54.4,12.293c26.521-5.241,31.45-38.519,31.819-46.395c0.386-8.298,1.693-14.112,7.418-15.001
			c1.226-0.191,2.293-1.112,2.354-2.359c0.215-4.652,0.422-9.082,0.698-15.013C449.479,608.347,448.516,607.295,447.273,607.226
			 M291.682,639.866c-4.692,13.962-9.564,22.873-15.788,28.897c-6.464,6.255-17.421,10.328-29.307,10.876
			c-5.237,0.248-10.637-0.175-16.052-1.246c-20.258-4.003-23.36-33.599-23.64-36.956l-0.044-0.386
			c-1.145-7.925,0.313-14.607,4.206-19.321c3.65-4.417,8.607-6.163,12.025-6.321c28.126-1.307,40.045-0.568,45.096,0.289
			c4.92,0.84,14.538,2.959,20.509,5.05C293.411,622.401,294.727,630.797,291.682,639.866 M428.851,641.052l-0.048,0.386
			c-0.284,3.357-3.379,32.953-23.645,36.956c-5.415,1.071-10.811,1.494-16.043,1.246c-11.887-0.548-22.849-4.621-29.313-10.876
			c-6.223-6.024-11.091-14.936-15.783-28.897c-3.049-9.069-1.729-17.464,3-19.117c5.964-2.09,15.585-4.209,20.505-5.05
			c5.043-0.857,16.966-1.596,45.087-0.289c3.419,0.158,8.38,1.904,12.034,6.321C428.53,626.445,429.992,633.127,428.851,641.052"/>
	</g>
	<g>
		<linearGradient id="SVGID_10_" gradientUnits="userSpaceOnUse" x1="665.1738" y1="649.1929" x2="973.9795" y2="649.1929">
			<stop  offset="0" style="stop-color:#0090EF"/>
			<stop  offset="0.0132" style="stop-color:#0090EF"/>
			<stop  offset="0.1546" style="stop-color:#009FEF"/>
			<stop  offset="0.325" style="stop-color:#00AAEF"/>
			<stop  offset="0.5133" style="stop-color:#00AEEF"/>
			<stop  offset="1" style="stop-color:#007AEF"/>
		</linearGradient>
		<path fill="url(#SVGID_10_)" d="M665.174,632.125c0-8.404,1.34-16.004,4.021-22.812c2.679-6.804,6.422-12.751,11.221-17.851
			c4.799-5.091,10.475-9.109,17.025-12.049c6.549-2.935,13.693-4.405,21.436-4.405c7.665,0,14.907,1.47,21.711,4.405
			c6.813,2.94,12.769,6.951,17.862,12.049c5.1,5.092,9.119,11.043,12.059,17.843c2.943,6.804,4.412,14.408,4.412,22.812
			c0,7.73-1.469,14.996-4.412,21.8c-2.939,6.804-6.959,12.735-12.059,17.791c-5.094,5.058-11.05,9.053-17.862,11.992
			c-6.804,2.936-14.046,4.401-21.711,4.401c-4.466,0-8.613-0.665-12.446-2.005c-3.832-1.34-7.426-3.089-10.775-5.25l-0.56,26.458
			c0,2.16-0.349,4.189-1.056,6.089c-0.711,1.892-1.712,3.552-3.021,4.965c-1.299,1.417-2.841,2.514-4.629,3.292
			c-1.785,0.78-3.759,1.173-5.919,1.173s-4.147-0.393-5.975-1.173c-1.819-0.779-3.442-1.876-4.856-3.288
			c-1.411-1.413-2.508-3.07-3.288-4.965c-0.788-1.896-1.178-3.926-1.178-6.078V632.125z M719.992,657.624
			c3.496,0,6.828-0.686,9.992-2.067c3.165-1.376,5.935-3.255,8.318-5.635c2.381-2.382,4.278-5.172,5.695-8.375
			c1.411-3.199,2.118-6.589,2.118-10.161c0-3.573-0.707-7.047-2.118-10.434c-1.417-3.39-3.314-6.163-5.695-8.322
			c-2.384-2.156-5.153-3.833-8.318-5.021c-3.164-1.19-6.496-1.787-9.992-1.787c-3.5,0-6.792,0.67-9.876,2.01
			c-3.095,1.34-5.772,3.143-8.04,5.415c-2.272,2.27-4.076,5.132-5.414,8.599c-1.34,3.46-2.014,6.938-2.014,10.434
			c0,3.499,0.674,6.796,2.014,9.881c1.338,3.089,3.142,5.769,5.414,8.038c2.268,2.273,4.945,4.076,8.04,5.417
			C713.2,656.953,716.492,657.624,719.992,657.624z M788.428,670.017c0.228-7.591,1.859-14.736,4.911-21.435
			c3.053-6.698,7.129-12.561,12.229-17.586c5.098-5.026,11.013-9.005,17.748-11.944c6.741-2.939,13.901-4.481,21.493-4.636h1.006
			c4.913,0.078,8.688,1.494,11.327,4.247c2.647,2.752,3.966,6.252,3.966,10.49c0,2.16-0.41,4.133-1.229,5.919
			c-0.819,1.786-1.916,3.349-3.288,4.688c-1.38,1.339-3.021,2.383-4.912,3.126c-1.9,0.743-3.894,1.117-5.977,1.117
			c-3.724,0-7.237,0.706-10.547,2.119c-3.313,1.417-6.219,3.353-8.713,5.805c-2.492,2.46-4.482,5.342-5.971,8.655
			c-1.491,3.313-2.269,6.865-2.342,10.661v36.285c0,2.083-0.374,4.02-1.121,5.806c-0.744,1.787-1.787,3.33-3.126,4.628
			c-1.34,1.308-2.882,2.33-4.628,3.073c-1.754,0.742-3.631,1.117-5.645,1.117c-2.005,0-3.945-0.375-5.804-1.117
			c-1.859-0.743-3.477-1.766-4.856-3.073c-1.376-1.299-2.477-2.842-3.292-4.628c-0.819-1.786-1.229-3.723-1.229-5.806V670.017z
			 M865.017,669.011c0-7.518,1.43-14.586,4.296-21.211c2.867-6.622,6.771-12.411,11.724-17.364
			c4.949-4.945,10.719-8.854,17.303-11.716c6.586-2.866,13.642-4.303,21.161-4.303c7.513,0,14.582,1.438,21.208,4.303
			c6.624,2.862,12.393,6.771,17.306,11.716c4.912,4.953,8.802,10.742,11.662,17.364c2.867,6.625,4.304,13.693,4.304,21.211
			c0,7.519-1.437,14.566-4.304,21.16c-2.86,6.584-6.75,12.333-11.662,17.245c-4.913,4.913-10.682,8.802-17.306,11.668
			c-6.626,2.867-13.695,4.295-21.208,4.295c-7.52,0-14.575-1.428-21.161-4.295c-6.584-2.866-12.354-6.755-17.303-11.668
			c-4.953-4.912-8.856-10.661-11.724-17.245C866.446,683.577,865.017,676.529,865.017,669.011z M894.71,669.011
			c0,3.427,0.653,6.626,1.958,9.601c1.307,2.976,3.101,5.582,5.375,7.815c2.272,2.233,4.903,3.983,7.883,5.245
			c2.987,1.267,6.154,1.9,9.517,1.9c3.431,0,6.657-0.633,9.679-1.9c3.019-1.262,5.649-3.012,7.883-5.245
			c2.24-2.233,4.011-4.839,5.319-7.815c1.307-2.975,1.956-6.174,1.956-9.601c0-3.422-0.649-6.625-1.956-9.601
			c-1.309-2.977-3.079-5.583-5.319-7.816c-2.233-2.233-4.864-3.978-7.883-5.245c-3.021-1.266-6.248-1.899-9.679-1.899
			c-3.362,0-6.529,0.634-9.517,1.899c-2.979,1.267-5.61,3.012-7.883,5.245c-2.274,2.233-4.068,4.839-5.375,7.816
			C895.363,662.386,894.71,665.589,894.71,669.011z"/>
		<path fill="#002F3A" d="M990.722,633.062c0-8.407,1.21-16.186,3.629-23.33c2.421-7.146,5.919-13.309,10.5-18.48
			c4.571-5.172,10.193-9.228,16.855-12.171c6.657-2.938,14.269-4.409,22.831-4.409c8.559,0,16.224,1.417,22.994,4.247
			c6.772,2.826,12.545,6.845,17.308,12.057c4.762,5.208,8.406,11.538,10.94,18.975c2.529,7.445,3.797,15.784,3.797,25.008v73.237
			c0,2.16-0.412,4.149-1.231,5.976c-0.819,1.823-1.917,3.402-3.288,4.742c-1.38,1.339-3.021,2.403-4.912,3.182
			c-1.9,0.78-3.894,1.173-5.977,1.173c-2.086,0-4.061-0.393-5.919-1.173c-1.859-0.779-3.475-1.843-4.854-3.182
			c-1.378-1.34-2.477-2.919-3.292-4.742c-0.821-1.827-1.231-3.816-1.231-5.976v-73.237c0-9.451-2.025-16.782-6.081-21.992
			c-4.061-5.208-9.923-7.815-17.588-7.815c-7.663,0-13.559,2.347-17.69,7.032c-4.133,4.693-6.196,12.322-6.196,22.889v73.123
			c0,2.16-0.39,4.149-1.176,5.976c-0.78,1.823-1.877,3.402-3.29,4.742c-1.416,1.339-3.053,2.403-4.912,3.182
			c-1.862,0.78-3.836,1.173-5.919,1.173c-2.159,0-4.149-0.393-5.975-1.173c-1.819-0.779-3.442-1.843-4.855-3.182
			c-1.414-1.34-2.509-2.919-3.289-4.742c-0.787-1.827-1.178-3.816-1.178-5.976V633.062z"/>
		<path fill="#002F3A" d="M1171.25,723.378c-7.52,0-14.566-1.428-21.161-4.295c-6.584-2.866-12.349-6.755-17.302-11.668
			c-4.947-4.912-8.857-10.661-11.724-17.245c-2.863-6.593-4.296-13.641-4.296-21.16c0-7.518,1.433-14.586,4.296-21.211
			c2.866-6.622,6.776-12.411,11.724-17.364c4.953-4.945,10.718-8.854,17.302-11.716c6.595-2.866,13.642-4.303,21.161-4.303
			c7.441,0,14.436,1.417,20.988,4.247c6.549,2.825,12.279,6.658,17.193,11.497c4.911,4.839,8.821,10.531,11.72,17.083
			c2.906,6.548,4.429,13.506,4.579,20.875v40.078c0,2.16-0.391,4.149-1.17,5.976c-0.786,1.823-1.863,3.423-3.239,4.798
			c-1.38,1.381-2.995,2.461-4.856,3.24c-1.862,0.78-3.834,1.169-5.919,1.169c-2.829,0-5.302-0.633-7.42-1.896
			c-2.128-1.263-3.816-2.975-5.083-5.135c-4.02,2.232-8.262,3.962-12.728,5.188C1180.852,722.77,1176.161,723.378,1171.25,723.378z
			 M1171.192,693.572c3.435,0,6.657-0.633,9.679-1.9c3.021-1.262,5.649-3.012,7.887-5.245c2.237-2.233,4.011-4.839,5.315-7.815
			c1.307-2.975,1.96-6.174,1.96-9.601c0-3.422-0.653-6.625-1.96-9.601c-1.305-2.977-3.078-5.583-5.315-7.816
			c-2.237-2.233-4.866-3.978-7.887-5.245c-3.021-1.266-6.244-1.899-9.679-1.899c-3.357,0-6.529,0.634-9.513,1.899
			c-2.983,1.267-5.614,3.012-7.887,5.245c-2.274,2.233-4.068,4.839-5.371,7.816c-1.305,2.976-1.957,6.179-1.957,9.601
			c0,3.427,0.652,6.626,1.957,9.601c1.303,2.976,3.097,5.582,5.371,7.815c2.272,2.233,4.903,3.983,7.887,5.245
			C1164.663,692.939,1167.835,693.572,1171.192,693.572z"/>
		<path fill="#002F3A" d="M1241.807,635.519c-0.893-2.01-1.34-4.02-1.34-6.029c0-1.936,0.374-3.812,1.116-5.639
			c0.743-1.822,1.767-3.422,3.073-4.799c1.3-1.38,2.862-2.493,4.686-3.353c1.827-0.854,3.816-1.283,5.977-1.283
			c2.825,0,5.468,0.783,7.925,2.346c2.454,1.563,4.313,3.723,5.58,6.476l20.543,49.012l20.435-48.902
			c1.112-2.753,2.914-4.913,5.416-6.472c2.492-1.567,5.147-2.347,7.98-2.347c2.16,0,4.149,0.411,5.969,1.226
			c1.827,0.821,3.408,1.941,4.749,3.354c1.34,1.413,2.38,3.012,3.126,4.799c0.738,1.786,1.112,3.613,1.112,5.472
			c0.073,1.04-0.016,2.083-0.275,3.127c-0.261,1.04-0.617,2.083-1.064,3.126l-33.714,77.589c-1.047,2.305-2.646,4.335-4.803,6.081
			c-2.16,1.753-4.876,2.704-8.146,2.85c-3.126,0-5.992-0.78-8.6-2.347c-2.605-1.559-4.537-3.755-5.805-6.584L1241.807,635.519z"/>
		<path fill="#002F3A" d="M1353.565,589.522c0-2.233,0.421-4.296,1.272-6.195c0.854-1.899,2.008-3.572,3.453-5.025
			c1.444-1.454,3.134-2.583,5.058-3.402c1.933-0.821,3.97-1.23,6.121-1.23c2.152,0,4.191,0.41,6.123,1.23
			c1.925,0.819,3.613,1.948,5.059,3.402c1.444,1.453,2.597,3.126,3.45,5.025s1.283,3.962,1.283,6.195c0,2.16-0.43,4.206-1.283,6.138
			c-0.854,1.941-2.006,3.629-3.45,5.083c-1.445,1.453-3.134,2.586-5.059,3.402c-1.932,0.821-3.971,1.23-6.123,1.23
			c-2.151,0-4.188-0.41-6.121-1.23c-1.924-0.815-3.613-1.949-5.058-3.402c-1.445-1.453-2.6-3.142-3.453-5.083
			C1353.986,593.728,1353.565,591.682,1353.565,589.522z M1354.458,629.153c0-2.005,0.405-3.906,1.218-5.691
			c0.819-1.787,1.916-3.35,3.28-4.69c1.372-1.339,2.987-2.399,4.838-3.178c1.861-0.788,3.825-1.177,5.896-1.177
			c2.006,0,3.898,0.389,5.676,1.177c1.777,0.779,3.32,1.839,4.621,3.178c1.29,1.34,2.312,2.903,3.052,4.69
			c0.739,1.786,1.113,3.686,1.113,5.691v79.489c0,2.014-0.391,3.91-1.17,5.695c-0.78,1.787-1.836,3.35-3.168,4.689
			c-1.33,1.34-2.891,2.404-4.668,3.183c-1.786,0.78-3.67,1.169-5.676,1.169c-2.005,0-3.914-0.389-5.724-1.169
			c-1.818-0.779-3.418-1.843-4.79-3.183c-1.364-1.339-2.461-2.902-3.28-4.689c-0.813-1.786-1.218-3.681-1.218-5.695V629.153z"/>
	</g>
</g>
</svg>
