<?xml version="1.0" encoding="utf-8"?>
<!-- Generator: Adobe Illustrator 16.0.0, SVG Export Plug-In . SVG Version: 6.00 Build 0)  -->
<!DOCTYPE svg PUBLIC "-//W3C//DTD SVG 1.1//EN" "http://www.w3.org/Graphics/SVG/1.1/DTD/svg11.dtd">
<svg version="1.1" id="レイヤー_1" xmlns="http://www.w3.org/2000/svg" xmlns:xlink="http://www.w3.org/1999/xlink" x="0px"
	 y="0px" width="479px" height="91.25px" viewBox="0 0 479 91.25" enable-background="new 0 0 479 91.25" xml:space="preserve">
<g>
	<g>
		<g>
			
				<linearGradient id="SVGID_1_" gradientUnits="userSpaceOnUse" x1="-123.8481" y1="296.0786" x2="-178.6699" y2="296.0786" gradientTransform="matrix(0.9209 0.3898 -0.3898 0.9209 282.7973 -163.9349)">
				<stop  offset="0" style="stop-color:#0090EF"/>
				<stop  offset="0.0132" style="stop-color:#0090EF"/>
				<stop  offset="0.2922" style="stop-color:#009FEF"/>
				<stop  offset="0.6284" style="stop-color:#00AAEF"/>
				<stop  offset="1" style="stop-color:#00AEEF"/>
			</linearGradient>
			<path fill="url(#SVGID_1_)" d="M48.435,59.413c0.77-3.275,0.493-3.328,0.493-3.328l3.983-1.343
				c1.178-0.384,2.311-0.852,3.423-1.379c-2.472-4.644,0.358-8.435-1.205-11.379c-0.409-0.771-3.331-0.699-4.146-0.832
				c-2.051-0.337-4.05-0.897-5.961-1.722c-3.751-1.616-7.04-4.088-10.328-6.475c-4.919-3.567-9.027-4.117-14.055-0.673
				c-6.129,4.2-12.848,7.201-19.411,10.627l0.856,1.646c2.294,4.378,7.68,6.068,12.066,3.789l5.733-2.999l-10.783,11l1.308,1.3
				c2.868,2.8,7.106,3.3,10.464,1.515c0.787-0.419,1.518-0.965,2.187-1.641l4.52-4.612l-6.849,13.781l1.659,0.831
				c2.692,1.34,5.722,1.193,8.185-0.117c1.584-0.843,2.924-2.172,3.788-3.904l4.885-9.805l-1.352,13.055
				c-0.058,0.551,0.406,1.015,0.957,0.948c1.577-0.187,5.396-1.931,5.979-2.413C46.889,63.584,47.802,62.112,48.435,59.413"/>
			
				<linearGradient id="SVGID_2_" gradientUnits="userSpaceOnUse" x1="1058.6602" y1="-204.4551" x2="1003.8398" y2="-204.4551" gradientTransform="matrix(-0.9209 0.3898 0.3898 0.9209 1201.8279 -163.9349)">
				<stop  offset="0" style="stop-color:#0090EF"/>
				<stop  offset="0.0132" style="stop-color:#0090EF"/>
				<stop  offset="0.2922" style="stop-color:#009FEF"/>
				<stop  offset="0.6284" style="stop-color:#00AAEF"/>
				<stop  offset="1" style="stop-color:#00AEEF"/>
			</linearGradient>
			<path fill="url(#SVGID_2_)" d="M152.11,59.413c-0.77-3.275-0.491-3.328-0.491-3.328l-3.985-1.343
				c-1.177-0.384-2.311-0.852-3.422-1.379c2.47-4.644-0.358-8.435,1.204-11.379c0.409-0.771,3.331-0.699,4.146-0.832
				c2.051-0.337,4.05-0.897,5.961-1.722c3.751-1.616,7.04-4.088,10.33-6.475c4.917-3.567,9.025-4.117,14.054-0.673
				c6.129,4.2,12.848,7.201,19.411,10.627l-0.856,1.646c-2.295,4.378-7.68,6.068-12.065,3.789l-5.735-2.999l10.784,11l-1.31,1.3
				c-2.868,2.8-7.106,3.3-10.464,1.515c-0.787-0.419-1.518-0.965-2.186-1.641l-4.52-4.612l6.847,13.781l-1.658,0.831
				c-2.694,1.34-5.723,1.193-8.187-0.117c-1.583-0.843-2.924-2.172-3.788-3.904l-4.885-9.805l1.352,13.055
				c0.058,0.551-0.405,1.015-0.956,0.948c-1.579-0.187-5.396-1.931-5.979-2.413C153.656,63.584,152.744,62.112,152.11,59.413"/>
			<path fill="#FFFFFF" d="M142.034,50.307c0,15.859-18.751,28.716-41.879,28.716c-23.129,0-41.879-12.856-41.879-28.716
				c0-15.86,18.75-28.718,41.879-28.718C123.283,21.589,142.034,34.446,142.034,50.307"/>
			<path fill="#FFFFFF" d="M100.752,38.939c0,16.19-10.445,29.315-23.332,29.315S54.088,55.13,54.088,38.939
				S64.534,9.624,77.42,9.624S100.752,22.749,100.752,38.939"/>
			<path fill="#FFFFFF" d="M146.818,38.939c0,16.19-10.446,29.315-23.332,29.315c-12.885,0-23.332-13.125-23.332-29.315
				s10.447-29.315,23.332-29.315C136.373,9.624,146.818,22.749,146.818,38.939"/>
			<linearGradient id="SVGID_3_" gradientUnits="userSpaceOnUse" x1="49.8052" y1="44.1855" x2="150.3584" y2="44.1855">
				<stop  offset="0" style="stop-color:#0090EF"/>
				<stop  offset="0.0132" style="stop-color:#0090EF"/>
				<stop  offset="0.1546" style="stop-color:#009FEF"/>
				<stop  offset="0.325" style="stop-color:#00AAEF"/>
				<stop  offset="0.5133" style="stop-color:#00AEEF"/>
				<stop  offset="1" style="stop-color:#007AEF"/>
			</linearGradient>
			<path fill="url(#SVGID_3_)" d="M150.352,2.952c0.107-0.804-1.076-1.174-1.587-0.501c-3.634,4.788-12.145,5.338-19.825,4.509
				c-1.295-0.139-4.932-0.182-6.546-0.133c-0.2,0.006-0.399,0.003-0.6-0.003c-1.134-0.027-5.509,0.057-11.141,2.548
				c-7.531,3.332-9.455,9.903-9.455,9.903c-0.265,0.47-0.491,0.957-0.678,1.458c-0.071,0.192-0.248,0.302-0.439,0.334
				c-0.189-0.032-0.367-0.142-0.439-0.334c-0.185-0.501-0.413-0.988-0.676-1.458c0,0-1.924-6.571-9.454-9.903
				c-5.634-2.491-10.008-2.575-11.144-2.548c-0.201,0.006-0.397,0.009-0.6,0.003c-1.614-0.049-5.249-0.006-6.546,0.133
				c-7.679,0.829-16.191,0.279-19.824-4.509c-0.51-0.673-1.693-0.303-1.587,0.501c0.078,0.599,0.203,1.189,0.35,1.773
				c-0.071,0.219-0.079,0.462,0,0.723c0.78,2.557,2.177,4.915,3.969,6.834c1.625,2.563,1.804,5.626,0.644,8.384
				c-3.246,4.634-4.51,9.942-4.01,15.44c0.192,2.124,0.464,4.238,0.82,6.34c0.97,5.72,2.371,11.174,4.806,16.453
				c1.685,3.653,3.641,7.224,6.025,10.471c1.42,1.934,2.956,3.78,4.657,5.473c4.779,4.757,10.26,11.339,32.679,11.423
				c0.081,0,0.154,0.004,0.235,0.004c0.032,0,0.062,0,0.095,0c0.031,0,0.065,0,0.096,0c0.08,0,0.154-0.004,0.235-0.004
				c22.416-0.084,27.899-6.666,32.678-11.423c6.729-6.699,10.828-15.486,13.275-22.434c0.417-1.187,0.797-2.701,1.137-4.344
				l0.391-0.662c-0.112-0.057-0.183-0.15-0.208-0.256c0.083-0.432,0.164-0.871,0.241-1.314c0.657-3.027,1.158-6.255,1.472-9.727
				c0.501-5.498-0.763-10.807-4.009-15.44c-1.161-2.758-0.981-5.821,0.644-8.384c1.791-1.919,3.188-4.277,3.968-6.834
				c0.079-0.261,0.071-0.504,0.001-0.723C150.147,4.142,150.272,3.551,150.352,2.952 M108.636,41.608
				c-4.853-17.244,0.958-24.15,9.735-25.447c1.495-0.221,3.1-0.343,4.749-0.347c9.076,0.032,19.327,3.761,19.004,15.426
				c-0.385,13.943-5.15,29.118-19.32,36.989c-7.687,3.844-15.161,4.9-22.723,5.017c-7.561-0.116-15.036-1.173-22.722-5.017
				C63.188,60.358,58.423,45.184,58.038,31.24c-0.323-11.665,9.932-15.394,19.006-15.426c1.647,0.004,3.254,0.126,4.748,0.347
				c8.777,1.297,15.207,7.863,9.86,25.391L108.636,41.608z"/>
			<path fill="#51412E" d="M94.037,89.785c-1.263,0.93-2.882-0.585-2.97-2.32c-0.661,1.129-2.505,3.417-4.248,2.904
				c-1.452-0.423-2.167-1.777-2.167-3.771c-0.459,0.671-1.41,2.602-2.84,2.211c-1.331-0.362-1.685-2.592,0.195-4.813
				c2.146-2.533,8.596-4.077,11.769-0.456C95.342,85.33,96.246,88.158,94.037,89.785"/>
			<path fill="#51412E" d="M106.125,90.479c1.266,0.929,2.885-0.586,2.972-2.321c0.661,1.13,2.505,3.417,4.248,2.905
				c1.451-0.424,2.166-1.778,2.166-3.771c0.458,0.671,1.41,2.602,2.839,2.211c1.331-0.362,1.685-2.594-0.195-4.812
				c-2.145-2.535-8.595-4.081-11.768-0.457C104.82,86.023,103.916,88.852,106.125,90.479"/>
			<path fill="#00AEEF" d="M78.706,3.738c3.313,0.665,6.571,1.659,9.626,3.114c3.046,1.452,5.906,3.391,8.128,5.941
				c1.107,1.272,2.039,2.699,2.687,4.248c0.146,0.345,0.274,0.697,0.388,1.055c0.17,0.539,0.941,0.539,1.111,0
				c0.115-0.357,0.245-0.71,0.388-1.055c0.65-1.549,1.583-2.976,2.688-4.25c2.222-2.549,5.084-4.487,8.128-5.939
				c3.055-1.455,6.314-2.449,9.626-3.114c0.444-0.09,0.893-0.159,1.339-0.235c-6.329-1.782-13.869-2.789-22.734-2.79
				C91.217,0.714,83.679,1.72,77.347,3.5C77.8,3.578,78.255,3.647,78.706,3.738"/>
			<path fill="#FED300" d="M79.187,32.953c3.848,0,6.979,3.128,6.979,6.976s-3.131,6.978-6.979,6.978s-6.976-3.13-6.976-6.978
				S75.339,32.953,79.187,32.953 M79.187,29.363c-5.835,0-10.566,4.73-10.566,10.565s4.731,10.566,10.566,10.566
				s10.567-4.731,10.567-10.566S85.022,29.363,79.187,29.363"/>
			<path d="M81.2,32.673c-4.072-1.283-8.4,0.926-9.661,4.936c-1.261,4.005,1.021,8.293,5.095,9.577
				c4.071,1.279,8.397-0.926,9.659-4.933C87.553,38.247,85.274,33.958,81.2,32.673 M78.759,37.238
				c-0.419,1.329-1.834,2.067-3.159,1.648c-1.328-0.419-2.064-1.834-1.646-3.16c0.417-1.328,1.832-2.063,3.16-1.646
				C78.438,34.496,79.176,35.911,78.759,37.238"/>
			<path fill="#FED300" d="M120.974,32.953c3.846,0,6.976,3.128,6.976,6.976s-3.13,6.978-6.976,6.978
				c-3.849,0-6.978-3.13-6.978-6.978S117.125,32.953,120.974,32.953 M120.974,29.363c-5.836,0-10.567,4.73-10.567,10.565
				s4.731,10.566,10.567,10.566c5.835,0,10.567-4.731,10.567-10.566S126.809,29.363,120.974,29.363"/>
			<path d="M122.985,32.673c-4.071-1.283-8.4,0.926-9.662,4.936c-1.261,4.005,1.02,8.293,5.095,9.577
				c4.071,1.279,8.397-0.926,9.66-4.933C129.338,38.247,127.06,33.958,122.985,32.673 M120.543,37.238
				c-0.417,1.329-1.833,2.067-3.158,1.648c-1.328-0.419-2.065-1.834-1.648-3.16c0.419-1.328,1.833-2.063,3.16-1.646
				C120.225,34.496,120.961,35.911,120.543,37.238"/>
			<path fill="#FED300" d="M95.217,31.917l10.854-0.321c0,0,3.743,11.762,3.842,13.404c-1.438,4.412-8.267,10.322-9.833,11.081
				c-1.888-0.686-9.187-8.57-9.831-11.081C91.678,39.003,95.217,31.917,95.217,31.917"/>
		</g>
		<path d="M145.21,28.624c-5.458-0.309-22.273-1.577-28.399-0.536c-5.235,0.888-14.446,3.05-16.729,3.05
			c-2.282,0-11.493-2.162-16.727-3.05c-6.128-1.041-22.942,0.228-28.401,0.536c-0.435,0.025-0.771,0.394-0.749,0.83
			c0.093,2.066,0.167,3.612,0.242,5.233c0.021,0.435,0.392,0.756,0.819,0.822c1.996,0.312,2.452,2.337,2.586,5.23
			c0.129,2.746,1.849,14.35,11.097,16.178c8.42,1.666,15.42-0.856,18.966-4.288c2.656-2.568,4.633-6.234,6.401-11.495
			c1.58-4.698,4.303-5.897,5.764-5.897c1.464,0,4.186,1.199,5.764,5.897c1.77,5.261,3.746,8.927,6.401,11.495
			c3.547,3.432,10.548,5.954,18.969,4.288c9.248-1.828,10.966-13.432,11.095-16.178c0.134-2.894,0.59-4.919,2.583-5.23
			c0.432-0.066,0.803-0.388,0.822-0.822c0.077-1.621,0.147-3.167,0.244-5.233C145.979,29.018,145.645,28.649,145.21,28.624
			 M90.956,40.006c-1.635,4.869-3.332,7.977-5.504,10.079c-2.253,2.18-6.076,3.6-10.22,3.79c-1.823,0.087-3.706-0.062-5.596-0.433
			c-7.065-1.397-8.144-11.716-8.243-12.888l-0.016-0.133c-0.398-2.764,0.109-5.094,1.466-6.738c1.273-1.54,3-2.149,4.195-2.206
			c9.806-0.455,13.963-0.195,15.724,0.103c1.713,0.291,5.068,1.033,7.149,1.761C91.561,33.918,92.02,36.846,90.956,40.006
			 M138.786,40.422l-0.016,0.133c-0.101,1.172-1.176,11.49-8.243,12.888c-1.889,0.371-3.771,0.52-5.598,0.433
			c-4.145-0.19-7.965-1.61-10.219-3.79c-2.17-2.103-3.869-5.21-5.505-10.079c-1.062-3.16-0.603-6.088,1.047-6.665
			c2.08-0.728,5.433-1.47,7.149-1.761c1.758-0.298,5.917-0.558,15.724-0.103c1.191,0.057,2.92,0.666,4.193,2.206
			C138.676,35.328,139.186,37.658,138.786,40.422"/>
	</g>
	<g>
		<g>
			<linearGradient id="SVGID_4_" gradientUnits="userSpaceOnUse" x1="227.3032" y1="29.293" x2="334.9814" y2="29.293">
				<stop  offset="0" style="stop-color:#0090EF"/>
				<stop  offset="0.0132" style="stop-color:#0090EF"/>
				<stop  offset="0.1546" style="stop-color:#009FEF"/>
				<stop  offset="0.325" style="stop-color:#00AAEF"/>
				<stop  offset="0.5133" style="stop-color:#00AEEF"/>
				<stop  offset="1" style="stop-color:#007AEF"/>
			</linearGradient>
			<path fill="url(#SVGID_4_)" d="M227.303,23.341c0-2.93,0.467-5.58,1.401-7.954c0.934-2.372,2.239-4.446,3.913-6.225
				c1.673-1.774,3.652-3.176,5.937-4.201c2.283-1.023,4.775-1.536,7.474-1.536c2.673,0,5.198,0.513,7.571,1.536
				c2.375,1.025,4.452,2.424,6.229,4.201c1.777,1.775,3.179,3.851,4.204,6.222c1.026,2.373,1.538,5.024,1.538,7.954
				c0,2.695-0.512,5.229-1.538,7.603c-1.025,2.372-2.427,4.44-4.204,6.203c-1.777,1.764-3.854,3.156-6.229,4.182
				c-2.373,1.023-4.898,1.534-7.571,1.534c-1.557,0-3.004-0.232-4.34-0.699c-1.336-0.468-2.589-1.077-3.757-1.83l-0.195,9.225
				c0,0.753-0.122,1.461-0.368,2.124c-0.248,0.659-0.598,1.238-1.053,1.73c-0.453,0.494-0.991,0.877-1.614,1.148
				c-0.623,0.271-1.311,0.409-2.064,0.409c-0.753,0-1.447-0.138-2.084-0.409c-0.634-0.271-1.2-0.654-1.693-1.146
				s-0.875-1.07-1.147-1.731c-0.274-0.661-0.41-1.369-0.41-2.119V23.341z M246.418,32.232c1.219,0,2.381-0.239,3.483-0.721
				c1.104-0.479,2.07-1.135,2.901-1.965c0.831-0.831,1.492-1.804,1.986-2.92c0.493-1.116,0.739-2.298,0.739-3.544
				c0-1.245-0.247-2.457-0.739-3.638c-0.494-1.182-1.155-2.148-1.986-2.901c-0.831-0.752-1.796-1.337-2.901-1.752
				c-1.103-0.414-2.265-0.622-3.483-0.622c-1.22,0-2.369,0.233-3.444,0.7c-1.079,0.467-2.013,1.096-2.803,1.889
				c-0.793,0.791-1.421,1.789-1.889,2.998c-0.467,1.206-0.702,2.419-0.702,3.638c0,1.221,0.235,2.37,0.702,3.446
				c0.467,1.077,1.096,2.011,1.889,2.803c0.79,0.793,1.724,1.421,2.803,1.889C244.049,31.999,245.198,32.232,246.418,32.232z
				 M270.28,36.555c0.079-2.647,0.648-5.139,1.713-7.475s2.486-4.38,4.264-6.133c1.778-1.752,3.841-3.14,6.189-4.164
				c2.35-1.025,4.847-1.563,7.494-1.617h0.351c1.713,0.027,3.029,0.521,3.95,1.481c0.923,0.959,1.383,2.18,1.383,3.657
				c0,0.753-0.144,1.441-0.43,2.064c-0.285,0.622-0.668,1.168-1.146,1.635c-0.48,0.467-1.053,0.831-1.713,1.09
				c-0.662,0.259-1.357,0.39-2.083,0.39c-1.299,0-2.524,0.246-3.678,0.738c-1.155,0.494-2.169,1.17-3.038,2.024
				c-0.869,0.858-1.563,1.863-2.082,3.019s-0.792,2.394-0.817,3.717v12.652c0,0.727-0.13,1.402-0.391,2.024
				c-0.259,0.623-0.623,1.161-1.09,1.614c-0.467,0.456-1.005,0.813-1.614,1.071c-0.611,0.259-1.265,0.39-1.967,0.39
				c-0.7,0-1.376-0.131-2.024-0.39s-1.212-0.615-1.693-1.071c-0.479-0.453-0.863-0.991-1.148-1.614
				c-0.285-0.622-0.429-1.298-0.429-2.024V36.555z M296.987,36.203c0-2.622,0.498-5.086,1.497-7.396
				c1-2.309,2.361-4.327,4.089-6.055c1.726-1.724,3.736-3.087,6.033-4.085c2.296-1,4.756-1.501,7.378-1.501
				c2.62,0,5.085,0.501,7.395,1.501c2.311,0.998,4.322,2.361,6.035,4.085c1.713,1.728,3.069,3.746,4.066,6.055
				c1,2.311,1.501,4.774,1.501,7.396s-0.501,5.079-1.501,7.378c-0.997,2.296-2.354,4.301-4.066,6.014s-3.725,3.069-6.035,4.068
				c-2.31,0.999-4.774,1.498-7.395,1.498c-2.622,0-5.082-0.499-7.378-1.498c-2.297-0.999-4.308-2.355-6.033-4.068
				c-1.728-1.713-3.089-3.718-4.089-6.014C297.485,41.282,296.987,38.825,296.987,36.203z M307.341,36.203
				c0,1.194,0.228,2.311,0.682,3.348c0.456,1.038,1.082,1.946,1.875,2.726c0.792,0.778,1.71,1.389,2.749,1.828
				c1.042,0.442,2.146,0.663,3.318,0.663c1.195,0,2.321-0.221,3.374-0.663c1.054-0.439,1.971-1.05,2.749-1.828
				c0.782-0.779,1.399-1.688,1.854-2.726c0.456-1.037,0.683-2.153,0.683-3.348c0-1.193-0.227-2.311-0.683-3.348
				c-0.455-1.038-1.072-1.946-1.854-2.726c-0.778-0.778-1.695-1.387-2.749-1.828c-1.053-0.442-2.179-0.663-3.374-0.663
				c-1.173,0-2.276,0.221-3.318,0.663c-1.039,0.441-1.957,1.05-2.749,1.828c-0.793,0.779-1.419,1.688-1.875,2.726
				C307.568,33.893,307.341,35.01,307.341,36.203z"/>
			<path fill="#002F3A" d="M340.819,23.668c0-2.932,0.422-5.644,1.266-8.136c0.844-2.491,2.063-4.64,3.66-6.443
				c1.595-1.804,3.555-3.218,5.878-4.244c2.321-1.024,4.976-1.537,7.961-1.537c2.984,0,5.657,0.494,8.019,1.48
				c2.361,0.985,4.374,2.387,6.034,4.205c1.661,1.815,2.932,4.022,3.815,6.616c0.882,2.596,1.323,5.504,1.323,8.72v25.537
				c0,0.753-0.143,1.447-0.429,2.084c-0.286,0.636-0.668,1.187-1.146,1.653c-0.481,0.467-1.054,0.838-1.713,1.11
				c-0.663,0.271-1.357,0.408-2.084,0.408c-0.728,0-1.416-0.137-2.063-0.408c-0.648-0.272-1.212-0.644-1.693-1.11
				c-0.479-0.467-0.863-1.018-1.148-1.653c-0.286-0.637-0.429-1.331-0.429-2.084V24.329c0-3.295-0.706-5.852-2.12-7.668
				c-1.416-1.816-3.46-2.726-6.133-2.726s-4.728,0.818-6.169,2.452c-1.441,1.637-2.16,4.297-2.16,7.981v25.497
				c0,0.753-0.136,1.447-0.41,2.084c-0.272,0.636-0.654,1.187-1.147,1.653s-1.064,0.838-1.713,1.11
				c-0.649,0.271-1.337,0.408-2.063,0.408c-0.753,0-1.447-0.137-2.084-0.408c-0.634-0.272-1.2-0.644-1.693-1.11
				c-0.492-0.467-0.874-1.018-1.146-1.653c-0.274-0.637-0.41-1.331-0.41-2.084V23.668z"/>
			<path fill="#002F3A" d="M403.768,55.161c-2.621,0-5.079-0.499-7.378-1.498c-2.296-0.999-4.306-2.355-6.033-4.068
				c-1.726-1.713-3.089-3.718-4.088-6.014c-0.998-2.299-1.498-4.756-1.498-7.378s0.5-5.086,1.498-7.396
				c0.999-2.309,2.362-4.327,4.088-6.055c1.728-1.724,3.737-3.087,6.033-4.085c2.299-1,4.757-1.501,7.378-1.501
				c2.595,0,5.034,0.494,7.319,1.481c2.283,0.984,4.281,2.321,5.994,4.009s3.076,3.672,4.087,5.956
				c1.014,2.284,1.545,4.71,1.597,7.279v13.975c0,0.753-0.136,1.447-0.407,2.084c-0.274,0.636-0.649,1.193-1.13,1.673
				c-0.481,0.481-1.045,0.858-1.693,1.13c-0.649,0.271-1.337,0.408-2.063,0.408c-0.986,0-1.849-0.221-2.588-0.661
				c-0.741-0.44-1.33-1.038-1.772-1.791c-1.401,0.778-2.881,1.382-4.438,1.81C407.116,54.948,405.48,55.161,403.768,55.161z
				 M403.748,44.768c1.197,0,2.321-0.221,3.375-0.663c1.053-0.439,1.97-1.05,2.75-1.828c0.78-0.779,1.398-1.688,1.854-2.726
				c0.456-1.037,0.684-2.153,0.684-3.348c0-1.193-0.228-2.311-0.684-3.348c-0.455-1.038-1.073-1.946-1.854-2.726
				c-0.78-0.778-1.697-1.387-2.75-1.828c-1.054-0.442-2.178-0.663-3.375-0.663c-1.171,0-2.276,0.221-3.316,0.663
				c-1.041,0.441-1.958,1.05-2.751,1.828c-0.793,0.779-1.418,1.688-1.873,2.726c-0.454,1.037-0.682,2.154-0.682,3.348
				c0,1.194,0.228,2.311,0.682,3.348c0.455,1.038,1.08,1.946,1.873,2.726c0.793,0.778,1.71,1.389,2.751,1.828
				C401.472,44.547,402.577,44.768,403.748,44.768z"/>
			<path fill="#002F3A" d="M428.371,24.524c-0.312-0.7-0.468-1.401-0.468-2.102c0-0.676,0.131-1.33,0.39-1.967
				c0.259-0.636,0.616-1.193,1.071-1.673c0.453-0.481,0.998-0.869,1.634-1.17c0.637-0.297,1.331-0.447,2.084-0.447
				c0.985,0,1.906,0.273,2.763,0.818s1.505,1.298,1.947,2.258l7.162,17.091l7.125-17.053c0.388-0.959,1.018-1.713,1.889-2.256
				c0.869-0.547,1.795-0.818,2.783-0.818c0.753,0,1.446,0.143,2.08,0.428c0.638,0.285,1.189,0.677,1.656,1.169
				c0.468,0.492,0.83,1.051,1.091,1.673c0.257,0.623,0.388,1.26,0.388,1.908c0.025,0.363-0.006,0.727-0.097,1.091
				c-0.091,0.362-0.215,0.726-0.371,1.09l-11.755,27.055c-0.365,0.804-0.923,1.512-1.675,2.12c-0.753,0.611-1.7,0.943-2.841,0.994
				c-1.09,0-2.089-0.271-2.998-0.818c-0.909-0.544-1.583-1.31-2.024-2.296L428.371,24.524z"/>
			<path fill="#002F3A" d="M467.339,8.486c0-0.779,0.147-1.498,0.445-2.161c0.297-0.662,0.699-1.245,1.203-1.752
				s1.093-0.9,1.764-1.187c0.674-0.286,1.384-0.429,2.135-0.429c0.75,0,1.461,0.143,2.135,0.429c0.671,0.286,1.26,0.68,1.764,1.187
				s0.906,1.09,1.203,1.752c0.297,0.663,0.447,1.382,0.447,2.161c0,0.753-0.15,1.466-0.447,2.14
				c-0.297,0.677-0.699,1.266-1.203,1.772s-1.093,0.902-1.764,1.187c-0.674,0.286-1.385,0.429-2.135,0.429
				c-0.751,0-1.461-0.143-2.135-0.429c-0.671-0.284-1.26-0.68-1.764-1.187s-0.906-1.096-1.203-1.772
				C467.486,9.952,467.339,9.239,467.339,8.486z M467.65,22.305c0-0.699,0.142-1.361,0.425-1.984
				c0.286-0.623,0.668-1.168,1.144-1.635c0.479-0.468,1.042-0.837,1.688-1.108c0.648-0.275,1.334-0.411,2.056-0.411
				c0.699,0,1.359,0.136,1.979,0.411c0.62,0.271,1.158,0.641,1.611,1.108c0.45,0.467,0.807,1.012,1.064,1.635
				s0.388,1.285,0.388,1.984v27.718c0,0.702-0.136,1.363-0.407,1.985c-0.271,0.623-0.64,1.168-1.104,1.636
				c-0.464,0.467-1.008,0.838-1.628,1.109c-0.623,0.271-1.279,0.408-1.979,0.408s-1.365-0.137-1.996-0.408
				c-0.635-0.271-1.192-0.643-1.671-1.109c-0.476-0.468-0.857-1.013-1.144-1.636c-0.283-0.622-0.425-1.283-0.425-1.985V22.305z"/>
		</g>
		<g>
			<path fill="#A5A5A5" d="M236.231,73.034c0.751,0,1.278,0.102,1.706,0.305c-0.224-0.346-0.345-0.771-0.345-1.22
				c0-1.339,1.076-2.415,2.416-2.415c1.341,0,2.417,1.076,2.417,2.415c0,1.321-1.076,2.397-2.417,2.397
				c-0.447,0-0.873-0.122-1.238-0.346c0.204,0.406,0.304,0.893,0.304,1.442c0,0.224-0.021,0.446-0.041,0.689
				c-0.872,6.111-5.157,10.822-11.655,12.508c-0.183,0.062-0.365,0.081-0.528,0.081c-0.569,0-0.995-0.305-1.178-0.853
				c-0.061-0.163-0.081-0.345-0.081-0.507c0-0.568,0.324-1.016,0.933-1.199c5.382-1.442,9.077-5.076,9.707-9.867
				c0.02-0.103,0.02-0.204,0.02-0.285c0-0.486-0.243-0.649-0.833-0.649h-11.207c-0.631,0-1.017-0.548-1.017-1.259
				s0.385-1.238,1.017-1.238H236.231z M238.85,72.119c0,0.651,0.508,1.158,1.158,1.158c0.65,0,1.157-0.507,1.157-1.158
				c0-0.647-0.507-1.156-1.157-1.156C239.358,70.963,238.85,71.472,238.85,72.119z"/>
			<path fill="#A5A5A5" d="M260.139,85.013c0,1.727-0.913,2.54-2.599,2.54h-10.477c-1.667,0-2.58-0.813-2.58-2.54V74.841
				c0-1.746,0.913-2.559,2.58-2.559h10.477c1.686,0,2.599,0.813,2.599,2.559V85.013z M256.586,85.136
				c0.73,0,0.915-0.202,0.915-0.893v-8.651c0-0.689-0.184-0.894-0.915-0.894h-8.568c-0.732,0-0.913,0.204-0.913,0.894v8.651
				c0,0.69,0.181,0.893,0.913,0.893H256.586z"/>
			<path fill="#A5A5A5" d="M265.591,85.034c-0.265,0.488-0.63,0.731-1.076,0.731c-0.245,0-0.508-0.082-0.791-0.265
				c-0.387-0.224-0.55-0.567-0.55-0.954c0-0.265,0.082-0.548,0.244-0.834c1.299-2.212,2.559-4.912,3.329-7.389
				c-0.567,0.02-1.197,0.02-1.826,0.02c-0.265,0-0.549,0-0.813,0c-0.629-0.02-0.974-0.447-0.974-1.138
				c0-0.689,0.385-1.136,1.034-1.136c0.446,0,0.894,0,1.341,0c0.648,0,1.3,0,1.908-0.021c0.243-0.894,0.426-1.786,0.589-2.66
				c0.082-0.589,0.507-0.893,1.096-0.893c0.102,0,0.204,0,0.306,0.021c0.629,0.122,0.994,0.425,0.994,0.994
				c0,0.102-0.02,0.204-0.04,0.326c-0.121,0.588-0.284,1.299-0.467,2.029c0.813-0.061,1.563-0.121,2.254-0.224
				c0.061-0.02,0.142-0.02,0.203-0.02c0.568,0,0.893,0.365,0.994,0.974c0,0.063,0,0.102,0,0.163c0,0.569-0.305,0.976-0.954,1.097
				c-0.954,0.162-2.05,0.244-3.127,0.324C268.392,79.146,266.992,82.537,265.591,85.034z M277.123,85.299
				c0,2.132-1.279,3.471-4.487,3.471c-2.74,0-4.507-1.421-4.507-3.553c0-2.152,1.827-3.655,4.507-3.655
				c0.773,0,1.441,0.082,2.112,0.243c-0.102-0.954-0.183-2.171-0.183-3.269c0-0.751,0.487-1.056,1.137-1.056
				c0.671,0,1.158,0.324,1.158,1.056c0,1.36,0.08,2.68,0.224,3.96c1.278,0.608,2.577,1.503,3.572,2.478
				c0.264,0.263,0.386,0.549,0.386,0.852c0,0.286-0.101,0.569-0.303,0.813c-0.244,0.285-0.53,0.447-0.833,0.447
				c-0.265,0-0.529-0.121-0.772-0.346c-0.629-0.628-1.381-1.26-2.011-1.645V85.299z M272.698,83.571
				c-1.401,0-2.296,0.63-2.296,1.605c0,0.913,0.832,1.461,2.214,1.461c1.523,0,2.295-0.526,2.295-1.826c0-0.245,0-0.467-0.021-0.772
				C274.281,83.734,273.469,83.571,272.698,83.571z M280.413,75.491c0.346,0.244,0.507,0.589,0.507,0.954
				c0,0.244-0.081,0.487-0.222,0.711c-0.225,0.324-0.569,0.507-0.935,0.507c-0.244,0-0.488-0.081-0.732-0.224
				c-1.115-0.771-2.557-1.543-3.918-2.11c-0.365-0.163-0.548-0.528-0.548-0.894c0-0.224,0.061-0.467,0.202-0.671
				c0.265-0.385,0.63-0.569,0.995-0.569c0.183,0,0.367,0.043,0.548,0.102C277.712,73.847,279.317,74.698,280.413,75.491z"/>
			<path fill="#A5A5A5" d="M287.61,74.272c-1.157,0.305-2.396,0.487-3.715,0.487c-0.608,0-0.995-0.365-1.036-1.076
				c0-0.041,0-0.061,0-0.102c0-0.608,0.365-1.076,1.017-1.098c1.889-0.039,3.755-0.222,5.501-0.507
				c0.143-0.02,0.265-0.02,0.387-0.02c0.568,0,0.955,0.202,1.238,0.691c0.122,0.222,0.183,0.467,0.183,0.689
				c0,0.386-0.202,0.771-0.567,1.034c-3.047,2.072-4.731,4.874-4.731,7.696c0,2.802,1.745,4.203,3.919,4.203
				c3.065,0,4.853-2.071,4.853-6.478c0-2.415-0.386-4.589-0.995-6.335c-0.041-0.143-0.062-0.284-0.062-0.406
				c0-0.507,0.326-0.852,0.874-1.015c0.162-0.041,0.324-0.062,0.467-0.062c0.508,0,0.894,0.264,1.076,0.73
				c1.097,2.54,2.863,4.955,4.65,6.561c0.323,0.283,0.467,0.628,0.467,0.974c0,0.325-0.122,0.629-0.346,0.894
				c-0.204,0.265-0.528,0.406-0.852,0.406c-0.307,0-0.632-0.142-0.875-0.428c-1.157-1.156-2.011-2.476-2.78-4.223l-0.103,0.041
				c0.427,1.382,0.67,2.803,0.67,3.918c0,4.853-2.538,7.839-7.025,7.839c-3.554,0-6.313-2.193-6.313-6.6
				c0-2.843,1.521-5.624,4.142-7.736L287.61,74.272z M297.621,70.963c0.264,0,0.508,0.122,0.671,0.365
				c0.385,0.567,0.813,1.38,1.057,1.91c0.059,0.142,0.1,0.282,0.1,0.424c0,0.286-0.143,0.53-0.426,0.672
				c-0.122,0.061-0.284,0.102-0.428,0.102c-0.283,0-0.589-0.144-0.75-0.467c-0.264-0.569-0.629-1.319-0.974-1.828
				c-0.082-0.143-0.122-0.265-0.122-0.406c0-0.284,0.161-0.528,0.446-0.671C297.338,71.004,297.479,70.963,297.621,70.963z
				 M299.996,70.172c0.265,0,0.487,0.122,0.672,0.385c0.364,0.487,0.729,1.197,0.974,1.767c0.063,0.122,0.082,0.244,0.082,0.365
				c0,0.326-0.185,0.589-0.447,0.711c-0.122,0.061-0.244,0.082-0.385,0.082c-0.286,0-0.569-0.143-0.752-0.488
				c-0.224-0.487-0.589-1.177-0.935-1.706c-0.061-0.122-0.101-0.264-0.101-0.365c0-0.305,0.201-0.548,0.487-0.67
				C299.733,70.191,299.854,70.172,299.996,70.172z"/>
		</g>
	</g>
</g>
<g>
</g>
<g>
</g>
<g>
</g>
<g>
</g>
<g>
</g>
<g>
</g>
</svg>
