<svg width="24" height="24" viewBox="0 0 24 24" fill="none" xmlns="http://www.w3.org/2000/svg">
<g clip-path="url(#clip0_355:2289)">
<path d="M23.2493 10.4994C22.8353 10.4994 22.4993 10.8353 22.4993 11.2493V19.7418L16.4997 22.1416V14.2491C16.4997 13.8351 16.1637 13.4992 15.7498 13.4992C15.3358 13.4992 14.9998 13.8351 14.9998 14.2491V22.1401L9.00017 19.7403V7.85802L12.4755 9.24843C12.8549 9.40142 13.2959 9.21544 13.4504 8.82996C13.6049 8.44598 13.4174 8.00951 13.0319 7.85502L8.5427 6.05813C8.5427 6.05813 8.5427 6.05813 8.5412 6.05813L8.5292 6.05363C8.35071 5.98163 8.15122 5.98163 7.97273 6.05363L7.95924 6.05813C7.95924 6.05813 7.95924 6.05813 7.95774 6.05813L0.471703 9.05344C0.188221 9.16744 0.000732422 9.44192 0.000732422 9.7494V23.2486C0.000732422 23.4975 0.125225 23.73 0.330712 23.8695C0.456704 23.955 0.602195 23.9985 0.750686 23.9985C0.84518 23.9985 0.939674 23.9805 1.02967 23.9445L8.25022 21.0572L15.4573 23.94C15.4573 23.94 15.4573 23.94 15.4588 23.94L15.4723 23.946C15.6508 24.018 15.8502 24.018 16.0287 23.946L16.0422 23.94C16.0422 23.94 16.0422 23.94 16.0437 23.94L23.5298 20.9462C23.8117 20.8307 23.9992 20.5562 23.9992 20.2488V11.2493C23.9992 10.8353 23.6633 10.4994 23.2493 10.4994ZM7.50026 19.7403L1.50064 22.1401V10.2564L7.50026 7.85652V19.7403Z" fill="#102E39"/>
<path d="M18.7496 2.99976C17.5092 2.99976 16.4998 4.00919 16.4998 5.24962C16.4998 6.49004 17.5092 7.49947 18.7496 7.49947C19.99 7.49947 20.9995 6.49004 20.9995 5.24962C20.9995 4.00919 19.99 2.99976 18.7496 2.99976ZM18.7496 5.99957C18.3356 5.99957 17.9997 5.66359 17.9997 5.24962C17.9997 4.83564 18.3356 4.49966 18.7496 4.49966C19.1636 4.49966 19.4996 4.83564 19.4996 5.24962C19.4996 5.66359 19.1636 5.99957 18.7496 5.99957Z" fill="#102E39"/>
<path d="M18.7497 0C15.8549 0 13.5 2.35485 13.5 5.24967C13.5 7.9435 17.7117 12.7147 18.1917 13.2502C18.3342 13.4077 18.5367 13.4992 18.7497 13.4992C18.9627 13.4992 19.1651 13.4077 19.3076 13.2502C19.7876 12.7147 23.9993 7.9435 23.9993 5.24967C23.9993 2.35485 21.6445 0 18.7497 0ZM18.7497 11.6048C17.1118 9.6624 14.9999 6.68058 14.9999 5.24967C14.9999 3.1828 16.6828 1.49991 18.7497 1.49991C20.8165 1.49991 22.4994 3.1828 22.4994 5.24967C22.4994 6.67908 20.3876 9.6624 18.7497 11.6048Z" fill="#102E39"/>
</g>
<defs>
<clipPath id="clip0_355:2289">
<rect width="24" height="24" fill="white"/>
</clipPath>
</defs>
</svg>
