<svg width="80" height="80" viewBox="0 0 80 80" fill="none" xmlns="http://www.w3.org/2000/svg">
<circle cx="40" cy="40" r="40" fill="#3b82f6"/>
<path fill-rule="evenodd" clip-rule="evenodd" d="M39.9999 23.3337C36.7197 23.3337 33.5512 24.7034 31.1979 27.179C28.8412 29.6581 27.4999 33.042 27.4999 36.5912C27.4999 41.7587 30.7006 46.8028 34.2563 50.751C35.9976 52.6845 37.7452 54.2682 39.0591 55.3688C39.407 55.6603 39.7234 55.9169 39.9999 56.1363C40.2764 55.9169 40.5928 55.6603 40.9408 55.3688C42.2547 54.2682 44.0022 52.6845 45.7435 50.751C49.2992 46.8028 52.4999 41.7587 52.4999 36.5912C52.4999 33.042 51.1586 29.6581 48.8019 27.179C46.4487 24.7034 43.2801 23.3337 39.9999 23.3337ZM39.9999 58.7503C38.8037 60.456 38.8032 60.4557 38.8026 60.4553L38.7974 60.4516L38.7858 60.4434L38.7469 60.4157C38.7142 60.3924 38.6681 60.3592 38.6094 60.3164C38.4919 60.2308 38.324 60.1068 38.113 59.9464C37.691 59.6259 37.0953 59.1592 36.3835 58.5629C34.963 57.373 33.0647 55.6542 31.1602 53.5394C27.4243 49.3911 23.3333 43.3556 23.3333 36.5912C23.3333 32.0031 25.0649 27.583 28.178 24.3082C31.2945 21.0298 35.5446 19.167 39.9999 19.167C44.4552 19.167 48.7053 21.0298 51.8218 24.3082C54.935 27.583 56.6666 32.0031 56.6666 36.5912C56.6666 43.3556 52.5756 49.3911 48.8397 53.5394C46.9351 55.6542 45.0368 57.373 43.6164 58.5629C42.9046 59.1592 42.3088 59.6259 41.8869 59.9464C41.6758 60.1068 41.5079 60.2308 41.3905 60.3164C41.3317 60.3592 41.2856 60.3924 41.2529 60.4157L41.2141 60.4434L41.2024 60.4516L41.1986 60.4543C41.198 60.4547 41.1961 60.456 39.9999 58.7503ZM39.9999 58.7503L41.1961 60.456C40.4781 60.9595 39.5206 60.9588 38.8026 60.4553L39.9999 58.7503Z" fill="white"/>
<path fill-rule="evenodd" clip-rule="evenodd" d="M39.9998 31.6667C37.6987 31.6667 35.8332 33.5321 35.8332 35.8333C35.8332 38.1345 37.6987 40 39.9998 40C42.301 40 44.1665 38.1345 44.1665 35.8333C44.1665 33.5321 42.301 31.6667 39.9998 31.6667ZM31.6665 35.8333C31.6665 31.231 35.3975 27.5 39.9998 27.5C44.6022 27.5 48.3332 31.231 48.3332 35.8333C48.3332 40.4357 44.6022 44.1667 39.9998 44.1667C35.3975 44.1667 31.6665 40.4357 31.6665 35.8333Z" fill="white"/>
</svg>
