<svg width="24" height="24" viewBox="0 0 24 24" fill="none" xmlns="http://www.w3.org/2000/svg">
<path fill-rule="evenodd" clip-rule="evenodd" d="M23.25 13H6.75C6.33579 13 6 12.5523 6 12C6 11.4477 6.33579 11 6.75 11H23.25C23.6642 11 24 11.4477 24 12C24 12.5523 23.6642 13 23.25 13ZM23 7H1C0.447715 7 0 6.55228 0 6C0 5.44772 0.447715 5 1 5H23C23.5523 5 24 5.44772 24 6C24 6.55228 23.5523 7 23 7ZM3.875 17H23.125C23.6082 17 24 17.4477 24 18C24 18.5523 23.6082 19 23.125 19H3.875C3.39175 19 3 18.5523 3 18C3 17.4477 3.39175 17 3.875 17Z" fill="#102E39"/>
</svg>
